<?xml version="1.0" encoding="UTF-8"?>
<svg id="Layer_2" data-name="Layer 2" xmlns="http://www.w3.org/2000/svg" viewBox="0 0 718.79 601.61">
  <defs>
    <style>
      .cls-1 {
        opacity: .75;
      }

      .cls-2 {
        fill: #6dcc4e;
      }

      .cls-3 {
        fill: #7f4cbf;
      }

      .cls-4 {
        fill: #93aeb5;
      }

      .cls-5 {
        fill: #58ff00;
      }

      .cls-6 {
        fill: #bccbce;
      }

      .cls-7 {
        fill: #e83274;
      }

      .cls-8, .cls-9 {
        fill: #fff;
      }

      .cls-10 {
        fill: #a668e9;
      }

      .cls-9 {
        opacity: .5;
        stroke: #ccc;
        stroke-miterlimit: 10;
        stroke-width: .5px;
      }

      .cls-11 {
        fill: #c5f0ff;
      }

      .cls-12 {
        fill: #fefefc;
      }

      .cls-13 {
        fill: #fd4f92;
      }

      .cls-14 {
        fill: #444;
      }

      .cls-15 {
        fill: #031e1b;
      }

      .cls-16 {
        fill: #999;
      }

      .cls-17 {
        fill: #8a9c9e;
      }

      .cls-18 {
        fill: #0d1c2e;
      }

      .cls-19 {
        fill: #7ce869;
      }

      .cls-20 {
        fill: #afafaf;
      }
    </style>
  </defs>
  <g id="Layer_1-2" data-name="Layer 1">
    <g id="Artwork_105" data-name="Artwork 105">
      <path class="cls-9" d="M703,332.32c-9.28,22.62-23.21,44.29-40.28,62.68-13.76,14.81-29.68,27.6-46.64,37.56.45,2.15,1.01,5.22.57,9.15v.05c.04,5.1-.06,6.79-.27,8.29-.64,4.66-1.12,9.16-1.44,13.34v.12c-.12,1.29-.34,2.58-.67,3.84-.18.65-.3,1.17-.42,1.63-.38,1.55-.86,3.48-1.82,5.9-2.07,5.18-4.9,9.84-8.41,13.88-4.98,5.71-10.01,10-15.38,13.16-5.09,3-11.22,6.36-18.23,8.68-24.89,8.23-51.96,11.42-78.28,9.21-1.7-.14-3.44-.31-5.14-.48-18.34-1.91-45.56-6.73-71.1-18.82-15.93-7.56-32.19-16.72-43.14-32.51-4.41-6.36-7.18-13.55-8.23-21.4,0-.02,0-.04-.01-.06-.47-3.6-.41-7.76.18-12.71.16-1.33.41-4.35.73-8.92.07-1.07.24-2.55.93-7.76.47-3.6,1.31-6.96,2.48-9.97.26-.68.54-1.35.83-2.01-.88-.83-1.78-1.7-2.69-2.6-5.68-5.57-11.25-11.58-16.54-17.87-3.83-4.56-7.17-9.42-10.39-14.12-.59-.85-1.16-1.69-1.74-2.53-1.7-2.46-3.69-5.71-6.1-9.96-3.31-5.79-6.68-12.56-10.02-20.09-10.43-23.57-16.11-48.86-16.91-75.16-.78-25.89,3.21-51.43,11.87-75.91,10.97-31.02,29.02-59.1,52.17-81.21,33.93-32.39,78.19-52.6,124.62-56.91,13.41-1.24,27.08-1.15,40.62.26,27.42,2.85,54.51,11.24,78.35,24.26,41.6,22.72,74.19,59.4,91.78,103.31,4.25,10.64,7.56,21.49,9.81,32.26,4,19.19,5.33,38.88,3.96,58.52-1.56,22.58-6.62,44.42-15.03,64.92Z"/>
      <path class="cls-14" d="M585.77,465.71c-.13.3-.27.59-.41.88-1.6,3.29-4.14,6.1-6.95,8.4-1.58,1.29-3.3,2.42-5.11,3.37-1.31.69-3.54,1.67-6.69,2.92-7.77,3.09-15.8,5.55-23.96,7.36-8.19,1.82-16.55,2.75-24.95,3.07-8.51.32-17.03.02-25.51-.71-8.71-.75-17.39-1.85-25.94-3.64-1.35-.28-2.69-.59-4.03-.91-2.95-.72-5.84-1.57-8.78-2.33-4.11-1.07-8.16-2.34-12.15-3.78-7.72-2.79-15.2-6.2-22.47-9.99-6.86-3.58-13.64-7.56-19.28-12.92-2.37-2.25-4.28-4.69-5.7-7.65-.28-.58-.47-.99-.57-1.2-2.3-4.85-2.38-10.69-1.52-15.82,0-.04.03-.07.05-.1.07-.06.72-.21.74-.22.12-.06.27-.01.32.11.35.75,1.01,1.7,1.39,2.11,2.94,3.18,5.85,5.76,8.71,7.71,7.73,5.28,15.8,9.91,24.22,13.89,10.8,5.1,21.55,9.11,32.24,12.01,4.51,1.23,9.36,2.38,14.55,3.46,4.14.86,9.06,1.61,14.78,2.24,13.27,1.47,26.37,1.85,39.29,1.14,7.74-.42,14.9-1.42,21.5-2.99,7.43-1.76,12.95-2.97,18.97-5.7,5.61-2.55,10.58-5.34,14.91-8.36,1.44-1.01,2.69-2.08,3.76-3.21.04-.04.1-.06.15-.06.1.01.18.1.17.2,0,0,.24.98.24,1.17-.05,3.27-.65,6.55-1.95,9.57Z"/>
      <path class="cls-20" d="M579.96,450.1c-10.66,7.84-24.02,12.54-37.1,14.61-9.26,1.47-18.34,2.2-27.23,2.19-8.2,0-15.26-.37-21.16-1.08-6.43-.78-10.62-1.27-12.59-1.49-1.9-.21-3.91-.56-6.03-1.08-2.47-.6-5.57-.96-8.03-1.58-8.41-2.12-15.16-4.1-20.26-5.93-2.26-.81-5.44-2.06-9.54-3.74-7.76-3.17-14.96-6.91-21.62-11.2-7.95-5.13-16.3-10.9-20.09-19.58-.81-1.85-1.13-3.78-.97-5.8.2-2.54,1.74-5.3,3.16-7.43.33-.51,1.01-.65,1.52-.33,3.82,2.39,7.8,4.85,11.96,7.39.46.28.83.65,1.09,1.1.08.13.12.27.13.42.34,4.76,3.5,7.99,7.07,10.67,2.68,2,6.04,4.13,10.11,6.38,10.26,5.68,21.18,10.15,32.77,13.39,12.07,3.39,24.34,5.57,36.8,6.55.98.08,3.97.2,8.95.38,8,.28,15.66-.1,23.5-1,7-.8,12.65-2.16,20.49-4.11,4.16-1.04,8.17-2.65,12-4.84,2.66-1.52,6.03-4.18,6.89-7.02.26-.85.43-1.77.51-2.74.04-.49.35-.91.8-1.09l13.75-5.54c.34-.14.73,0,.91.32,4.96,8.76-.57,16.92-7.76,22.21Z"/>
      <path class="cls-4" d="M430.95,397.7l-1.22,8.35c-.07.52-.46.95-.97,1.07l-7.8,1.92c-.46.11-.95.02-1.33-.26l-7.92-5.74s-.08-.09-.09-.15c-.03-.14.06-.26.2-.28,0,0,12.06-4.21,18-5.26.67-.12,1.04-.02,1.13.28,0,.03,0,.05,0,.07Z"/>
      <path class="cls-4" d="M577.48,420.69c-2.8,1.29-6.04,2.75-9.71,4.37-.61.27-1.24.39-1.87.37-.15,0-.28-.05-.42-.12-1.96-.99-4.04-1.86-6.26-2.63-3.89-1.34-8.02-2.36-12.38-3.06-.2-.03,7.1-3.85,7.97-4.26.15-.07,5.14-3.5,5.14-3.5.2-.14.47-.15.68-.02,0,0,12.22,5.66,16.41,7.97.18.1.49.61.51.65.04.08,0,.19-.08.23Z"/>
      <path class="cls-11" d="M684.16,297.82c-1.81,7.25-3.64,13.24-5.5,17.97-2.43,6.18-4.66,11.42-6.68,15.73-.12.25-.21.44-.28.58-1.26,2.52-2.37,4.65-3.31,6.4-2.17,3.99-5.44,9.67-8.33,13.98-6.25,9.29-13.11,17.82-20.58,25.56-4,4.15-8.91,8.57-14.72,13.28-5.07,4.11-10.05,7.83-14.95,11.15-1.92,1.3-3.39,2.03-5.22,3.32-.23.17-.93.6-2.1,1.31-5.01,3.02-9.91,5.74-14.69,8.15-.45.22-.99.18-1.4-.11-4.31-3.1-9.55-6.08-15.71-8.96-.39-.18-.66-.38-.82-.6-.22-.29-.18-.69.06-.95,1.77-1.84,3.4-3.43,4.88-4.77,3.55-3.21,7.22-7.05,11.02-11.52,11.12-13.1,20-27.47,26.62-43.09.25-.58.71-1.05,1.3-1.28.64-.26,1.3-.59,1.98-.98,5.95-3.45,11.24-6.89,15.87-10.34,1.95-1.46,4.68-3.83,8.18-7.12,1.57-1.47,3.07-3.2,4.5-5.18.49-.69,1.86-2.53,4.11-5.54,1.72-2.3,3.51-5.17,5.39-8.61,1.19-2.2,2.4-4.34,3.8-6.44.23-.34.65-1.23,1.29-2.71,1.64-3.79,4.06-9.21,7.24-16.25,1.52-3.37,2.91-7.33,4.17-11.9.68-2.45.86-4.29.55-5.49-.92-3.55-4.21-4.79-7.86-6.43-4.19-1.88-7.62-4.29-10.43-7.64-1.43-1.71-2.8-4.04-4.09-6.99-3.38-7.71-5.61-15.57-6.69-23.56,0-.02,0-.05,0-.08,0-.29.25-.53.55-.52,2.99.09,5.77-.26,8.33-1.05.45-.14,1.5-.66,3.15-1.58,1.01-.56,1.97-1.24,2.87-2.04,3.42-3.01,6.21-6.36,8.4-10.05.21-.36.39-.77.55-1.22.17-.5-.09-1.06-.58-1.26-1.84-.76-5-1.92-9.47-3.49-1.34-.47-3.66-1.55-6.96-3.22-2.13-1.09-4.33-2.44-6.57-4.06-4.75-3.43-8.15-5.96-10.2-7.59-2.69-2.14-5.86-4.93-9.5-8.38-3.57-3.38-7.83-7.49-12.78-12.31-4.14-4.04-8.68-8.08-13.61-12.11-24.41-19.93-56.76-29.23-88.01-28.48-2.53.06-4.76.19-6.71.39-2.99.31-6.19.45-8.92.94-5.82,1.05-11,2.26-15.53,3.64-11.71,3.55-22.06,9.64-31.04,18.25-.7.67-1.56,1.02-2.59,1.04-11.44.25-23.19,3.94-31.97,11.37-4.29,3.62-8.09,7.26-11.39,10.93-3.34,3.7-6.31,8.77-8.3,13.11-3,6.51-4.83,10.64-5.5,12.4-1.78,4.72-3.41,8.68-4.88,11.88-2.27,4.96-4.88,9.65-7.85,14.08-3.08,4.61-7.21,8.51-11.88,11.12-.82.46-1.96.91-3.41,1.34-2.11.63-3.56,1.03-4.37,1.22-2.65.6-3.86,2.73-4.23,5.23-.79,5.36.06,10.42,1.33,16.39,1.15,5.41,2.51,10.25,4.07,14.51,1.41,3.86,2.66,7.98,4.04,12.07,1.23,3.65,2.85,7.31,4.86,10.97,2.93,5.33,6.15,10.36,9.68,15.07.44.59.49,1.47.16,2.63-1.36,4.7-3.64,9.58-6.72,13.58-2,2.6-2.99,3.9-2.99,3.9-.79,1.01-.75,1.9.12,2.66,2.99,2.66,5.78,4.9,9.59,6.35,4.67,1.77,10.02,3.02,15.03,3.23.31.01.56.27.56.58-.02,6.8,1.84,13.06,5.59,18.76,1.1,1.67,2.89,3.86,5.35,6.57,1.82,2,3.82,3.69,5.99,5.05,2.29,1.45,3.6,2.4,5.85,3.09h0c2.36-4.62,4.72-9.23,7.08-13.84,1.07-2.09,3.98-2.31,5.34-.39,3.06,4.33,7.39,10.88,9.07,15.58.52,1.45.69,2.45.83,3.32.34,2.13-.85,5.78-1.64,9.72-.05.26-.26.45-.52.5-9.26,1.35-18.29,3.63-27.1,6.81-.11.04-.21.09-.3.15-.51.35-1.03.55-1.53.58-.2.01-.39-.06-.55-.17-.85-.59-1.74-1.28-2.67-2.08-6.23-5.32-10.57-9.24-13.03-11.74-4.93-5.02-8.81-9.23-11.62-12.61-1.49-1.79-4.44-5.61-8.84-11.46-2.09-2.77-5.5-8.08-10.24-15.94-1.07-1.76-3.2-6.01-6.4-12.74-2.44-5.13-4.32-9.48-5.64-13.04-6.53-17.57-10.1-35.67-10.69-54.3-.11-3.62.11-7.26.12-11.16,0-.88.08-2.37.23-4.47.5-6.85,1.31-13.66,2.45-20.42.67-3.99,1.87-8.18,2.62-11.58.85-3.87,2-7.46,2.99-11.09.4-1.45.88-2.91,1.44-4.37,2.78-7.21,4.26-11.45,6.77-16.75,3.46-7.28,7.19-14.87,11.49-21.44,3.62-5.52,7.09-10.73,11.27-16.27,1.42-1.89,3.53-4.35,6.3-7.37,5.76-6.27,9.15-9.89,10.18-10.86,4.38-4.13,8.98-8.28,13.59-11.64,4.12-3.01,7.74-5.87,12.65-9.05,3.32-2.15,5.54-3.59,6.67-4.31,3.3-2.11,8.28-4.7,14.93-7.78,5.41-2.5,11.75-4.99,19.01-7.46,4.75-1.61,9.37-2.95,13.87-4,4.39-1.02,6.75-1.58,7.07-1.66,2.23-.54,5.28-.77,7.01-1.2,1.52-.37,2.59-.32,4.06-.53,5.7-.8,9.43-1.23,11.2-1.3,2.08-.08,3.33-.15,3.75-.21,1-.14,2.24-.21,3.74-.21,3.7-.01,8,.04,12.89.15,7.4.17,14.84.84,22.31,2.03,1.12.18,2.74.69,4.1.89,3.56.53,5.75.92,6.58,1.17,1.49.45,3.26.89,5.29,1.34,4.46.98,9.32,2.45,14.58,4.4,3.84,1.43,7.25,2.74,10.24,3.94,8.35,3.37,15.71,7.01,22.09,10.94,2.85,1.75,5.61,3.46,8.1,5.23,5.8,4.12,11.87,8.49,15.63,11.9,4.7,4.26,8.78,8.12,12.21,11.59.86.87,3.01,3.26,6.47,7.19,2.25,2.55,4.23,4.98,5.94,7.28,3.88,5.2,6.07,8.18,6.54,8.93,2.27,3.53,4.23,6.66,5.88,9.41,1.2,2,3,5.38,5.41,10.14,8.88,17.55,14.54,36.74,17.22,56.15.28,2.04.53,4.57.74,7.61.28,4.05.51,6.11.61,10.18.43,17.12-1.4,33.92-5.5,50.41Z"/>
      <path class="cls-17" d="M415.96,349.08c-1.12,1.44-2.24,2.95-3.37,4.55-2.15,3.07-4.01,6.05-5.63,8.9-4.8-4.45-6.95-9-7.92-11.58-1.11-2.94-1.88-5.77-2-9.51-.1-3.05.39-7.1.16-10.35-.04-.56-.13-1.09-.29-1.56-.11-.33-.41-.55-.76-.55-3.55.01-7.19,1.09-10.65,1.58-4.03.56-7.88-.06-11.55-1.89-.78-.39-1.3-.92-1.54-1.59-.11-.32-.05-.67.16-.94,2.86-3.55,5.22-7.14,7.07-10.76.14-.28.47-.42.77-.34.55.15,1.11.47,1.67.96,3.77,3.23,8.16,6.51,12.83,8.36,2.52,1,5.09,1.88,7.71,2.59,1.86.5,5.14.59,6.54,2.03.4.41.64.94.89,1.46,2.72,5.92,5.73,12.01,5.92,18.63Z"/>
      <path class="cls-17" d="M647.6,260.31c-.08.13-.27.3-.42.36-2.37.97-4.88,1.53-7.51,1.66-.42.02-.92.11-1.5.27-.42.11-.71.49-.74.92-.46,6.57-1.73,13.07-3.82,19.51-1.99,6.12-4.65,10.18-5.65,11.38-1.43,1.72-2.82,2.97-3.83,3.78.7-7.79,1.41-15.58,2.11-23.37.91-12.47,1.67-21.59,1.86-22.41.09-.4.58-1.11.76-1.22.13-.08.29-.12.45-.09,1.65.3,3.73.34,6.26.13.05,0,.09-.01.14-.03.32-.1.48-.45.37-.76-1.14-3.27-2.32-6.27-3.53-9-2.13-4.81-3.93-9.15-6.36-14.91-1.26-3.01-1.93-5.95-1.99-8.83-.02-1.27.67-1.75,2.1-1.45.9.19,2.76.59,5.58,1.21.42.09.76.41.87.83.83,3.15,1.6,6.51,2.3,10.08.58,2.93,1.19,5.5,1.85,7.72,1.34,4.53,2.1,7.06,2.3,7.59,1.33,3.66,3.2,7.45,5.59,11.37.92,1.51,1.57,2.05,2.7,3.41.05.06.1.14.13.22.26.63.26,1.17-.02,1.63Z"/>
      <path class="cls-6" d="M653.49,205.24c-2.65,1.48-7.2,3.54-13.07,3.73-2.96.1-5.15-.27-7.8-.81-8.65-1.76-16.43-5.26-23.34-10.49-1.13-.85-2.45-1.97-3.97-3.33-2.25-2.03-3.56-3.17-3.93-3.43-.15-.11-.32-.14-.52-.1-.03,0-.05.01-.07.03-.1.06-.13.2-.07.31,3.2,5.23,6.21,10.67,9.04,16.31.7,1.39,2.1,4.56,4.61,11.06,2.24,5.8,5.2,13.82,8.41,23.71-7.98-5.04-14.71-9.89-20.16-14.11-9.99-7.72-16.85-14.25-18.06-15.37-1.33-1.23-2.16-2.03-2.48-2.39-1.07-1.18-2.24-2.03-3.33-3.13-2.26-2.29-4.27-4.32-6.02-6.09-5.48-5.55-10.33-11.02-15.71-15.78-.06-.06-.15-.08-.23-.07-.15.03-.25.17-.22.32.54,3.02.95,6.4,1.21,10.15.33,4.77.81,11.67.48,18.29-.35,6.93-.72,13.25-3.51,20.93-.87,2.39-1.75,4.3-2.37,5.56-.26-.55-.63-1.36-1.1-2.35-2.15-4.5-4.07-8.1-4.77-9.35-2.8-4.99-6.24-9.81-10.31-14.46-5.36-6.13-11.36-12.02-17.99-17.69-5.71-4.88-11.77-9.86-18.19-14.95-.05-.03-.1-.06-.16-.07-.18-.02-.35.1-.37.28-.04.32-.04.74,0,1.26.08,1-.62,1.08,1.11,9.45.75,3.62,2.84,12.88,6.07,25.22-2.44-1.08-6.12-2.87-10.25-5.61-3.91-2.58-10.13-8.03-17.23-15.41-4.45-4.63-8.36-8.73-11.72-12.31-.93-.98-2.82-2.56-4.03-1.14-.1.12-.16.26-.18.42-.64,6.52-1.82,13-3.52,19.46-.97,3.68-2.29,7.33-3.96,10.94-1.8,3.9-3.74,7.4-5.83,10.5-5.72,8.5-8.06,13.21-12.17,16.67-2.93,2.47-5.72,4-7.51,4.87,2.91-30.16,3.41-35.77,3.39-35.87-.02-.1-.08-.12-.08-.12-.07-.04-.15,0-.18.06-1.19,2.29-2.28,4.77-3.29,7.45-2.53,6.74-5.11,11.57-8,30.36-3.21,20.85-1.65,40.34-.65,49.48-1.81-1.81-3.96-4.18-6.13-7.12-2.22-3-3.69-5.52-4.36-6.77-1.57-2.91-3.03-6.19-4.35-9.83-1.36-3.72-2.31-7.47-2.85-11.27-.68-4.66-1.32-9.99-1.04-15.14.2-3.71.56-8.02,1.07-12.94.24-2.33,1.06-4.8,1.18-7.18,0-.11-.05-.21-.13-.27-.14-.09-.33-.05-.42.09-1.64,2.53-3.32,4.84-5.03,6.93-2.82,3.47-6.2,6.16-10.13,8.1-.72.35-1.41.36-2.08.02-2.34-1.2-6.38-3.13-12.1-5.78-.94-.43-2.54-1.15-1.49-2.45,1.35-1.65,2.77-3.37,4.29-5.15,1.69-1.98,3.07-3.74,4.15-5.26,2.36-3.35,4.39-6.9,6.08-10.65,2.1-4.64,3.82-8.68,5.18-12.13,2.79-7.08,6.09-14.12,9.91-21.15.68-1.24,2.06-3.18,4.14-5.82,1.57-2,3.21-3.72,4.9-5.16,4.25-3.63,9.04-6.75,14.36-9.34,3.07-1.5,5.91-2.53,8.51-3.08,4.74-1,9.81-1.57,14.44-.51.34.08.69-.06.9-.33,4.16-5.58,9.32-10.15,15.49-13.69,1.34-.77,2.78-1.54,4.31-2.33,1.3-.67,3.31-1.48,6.02-2.45,9.34-3.32,18.96-5.27,28.86-5.84.82-.05,1.8-.04,2.94.02.16.01.32,0,.48,0,2.13-.2,4.07-.25,5.82-.13,1.28.08,3.06.19,5.36.32,2.87.16,4.74.3,5.61.43,2.28.34,5.66.88,10.15,1.63,2.1.35,5.86,1.26,11.25,2.73,20.35,5.53,38.44,15.75,54.28,30.66,2.97,2.79,7.76,7.33,14.38,13.6.18.17,1.63,1.53,4.34,4.07,1.75,1.64,3.24,2.96,4.46,3.96,1.67,1.36,6.99,5.97,11.04,8.74,3.5,2.4,9.38,5.75,18.26,8.07Z"/>
      <path class="cls-3" d="M535.86,441.67c.03.14.02.27-.04.37-.05.1-.15.17-.31.2-7.66,1.62-14.08,2.04-22.46,2.24-13.89.32-27.7-1.56-41.58-4.76-6.81-1.57-12.9-3.8-20.3-6.52-3.27-1.21-6.47-2.58-9.58-4.15-1.58-.8-3.37-1.48-4.62-2.79-1.74-1.85-1.31-3.83-.48-6,1.4-3.65,2-7.65,2.83-11.48.9-4.14,1.74-8.29,2.42-12.47.41-2.49.77-5,1.31-7.47.11-.52.3-1.11.8-1.29.6-.21,1.18.31,1.61.78,3.27,3.59,6.98,6.83,10.84,9.76,11.99,9.05,25.01,16.23,39.05,21.54,6.06,2.29,10.84,2.75,18.77,3.7,2.06.24,4.05.13,6.38.13,5.22.02,10.19-.57,14.88-1.76.07-.02.14-.02.21-.03.48,0,.87.39.87.87.02,6.02,0,12.08-.09,18.19,0,.6-.18.91-.54.94Z"/>
      <path class="cls-10" d="M660.36,269.61c-.13.54-.42,1.28-.85,2.24-1.47,3.29-2.91,6.62-4.32,10-1.75,4.21-3.45,7.59-5.05,11.53-1.12,2.77-2.38,5.34-3.76,7.71-1.44,2.46-2.55,4.38-3.34,5.75-3.26,5.7-7.39,10.73-12.37,15.08-3.55,3.11-7.52,6.13-11.91,9.06-.5.34-.92.5-1.25.51-.08,0-.16-.01-.23-.03-.4-.12-.62-.54-.49-.94.92-2.99,1.69-5.91,2.31-8.74.46-2.12,1.01-3.14,2.44-4.87,3.06-3.68,5.14-6.31,6.22-7.89,2.03-2.95,3.67-5.82,4.93-8.6,1.68-3.7,2.74-6.02,3.18-6.95.26-.54.64-1.02,1.1-1.4,3.4-2.77,6.41-6.15,9.04-10.14.03-.05.05-.1.07-.15.08-.29-.09-.59-.38-.68-.41-.12-.84-.07-1.31.14-1.16.52-2.33.93-3.53,1.24-.12.03-.25.03-.37,0-.39-.1-.61-.5-.51-.89l2.71-9.83c.09-.32.35-.56.67-.63,4.57-.93,8.76-1.85,12.59-2.78.99-.24,2.32-.25,2.96-.44.1-.03.2-.04.3-.03.7.09,1.08.54,1.14,1.36.01.13,0,.26-.03.38Z"/>
      <path class="cls-10" d="M618.39,275.81c.42-5.33,1.14-9.54,1.15-14.45,0-3.56-.33-7.37-.19-10.98.03-.79-.28-1.32-.95-1.59-.86-.36-1.87-.88-3.04-1.56-.8-.47-8.72-3.94-24.1-16.84-5.21-4.37-11.6-10.07-18.69-17.22-1.77-1.78-3.59-3.66-5.44-5.63.11,5.36-.22,9.48-.53,12.22-.24,2.09-.49,3.65-.57,4-.65,2.75-.84,4.95-1.71,7.5-.12.33-.45,1.49-1.03,3.5-.49,1.69-1.18,3.71-2.1,6.06-1.96,5.05-4.79,9.39-8.32,13.38-.48.54-.97,1.08-1.48,1.61-1.23,1.3-1.92,2.06-3.48,2.49-.14.04-.28-.04-.32-.19,0-.02-.02-.05-.02-.08.07-3.56-.36-7.15-1.31-10.79-.74-2.85-2.16-6.18-4.26-9.99-3.9-7.08-8.52-13.58-13.89-19.5-3.25-3.58-6.77-7.08-10.55-10.49.35,1.69.66,3.08.91,4.2.89,3.98,2.54,9.53,4.95,16.67.25.73.7,1.76,1.37,3.09.06.12,0,.26-.11.33-.04.02-.1.04-.15.03-1.81-.29-3.59-.7-5.34-1.19.04.09.09.17.13.27.06.12,0,.26-.11.33-.04.02-.1.04-.15.03-5.48-.89-10.67-2.8-15.45-4.86-2.07-.9-4.15-2-6.25-3.3-4.97-3.09-10.05-6.49-14.63-10.45-1.7-1.47-3.49-3-5.36-4.58-1.15-.97-2.18-1.96-3.29-3.07-.54,2-.99,4.01-1.81,6.1-1.15,2.97-1.9,4.77-2.22,5.4-.78,1.5-1.56,3.07-2.32,4.72-.9,1.92-1.77,3.32-3.23,5.86-4,6.98-8.71,13.3-14.15,18.96-.94.99-2.37,2.26-3.67,3.54-1.12,1.1-2.82,2.45-5.11,4.07-1.98,1.4-3.83,2.22-6.03,2.81-.33.08-.57.36-.6.7-.55,4.8-.79,9.18-.74,13.13.01,1.32-.26,2.85-.25,4.07.06,13.05,1.12,26,3.18,38.87.03.21-.11.41-.32.44,0,0,0,0-.01,0-.27.02-.65-.03-1.13-.18-1.43-.42-2.8-.92-4.11-1.49.03.22.07.44.1.66.03.21-.11.41-.32.44,0,0,0,0-.01,0-.27.02-.65-.03-1.13-.18-4.92-1.47-9.16-3.78-12.7-6.94-2.08-1.86-3.59-3.35-4.52-4.47-1.96-2.37-3.12-3.76-3.47-4.16-1.22-1.42-2.29-2.88-3.21-4.36-1.26-2.01-2.38-3.96-3.37-5.84-.75-1.43-1.42-2.82-2.01-4.16-.28-.63-.61-.96-.98-.98-.62-.04-1.04.18-1.24.64-.22.52-.44,1.12-.67,1.79-.14.42-.27.88-.41,1.36-.14.48-.2.99-.17,1.5.03.78.08,1.56.16,2.31.17,1.77.47,3.46.86,5.13.48,2.07,1.09,4.11,1.79,6.21.07.21-.04.44-.25.51-.07.02-.13.02-.2.01-2.06-.33-4.27-3.07-5.44-4.71-1.48-2.08-2.23-4.58-2.24-7.49-.02-3.53.49-6.81,1.54-9.82.13-.38.04-.81-.24-1.1-2.86-3.03-5.46-6.26-8.79-8.81-1.3-1-2.07-1.48-3.54-2.55-3.54-2.56-4.15-3.05-4.03-3.46.23-.83,3.19-.98,5.75-.44.42.09.84.2,1.24.32,4.7,1.42,7.64,4.76,7.64,4.76,1.4,1.33,2.62,2.88,4.32,3.85.1.06.3-.12.3-.14,0,0,1.04-.64,1-.95,0,0,0-.01,0-.01-.13-.81-.26-1.62-.38-2.43-.41-2.72-.77-5.49-1.07-8.28-.07-.69-.4-1.26-.97-1.71-1.58-1.24-2.47-1.95-2.69-2.12-.21-.16-.42-.3-.64-.41-3.23-1.68-10.23-5.49-15.8-7.92-1.72-.75-3.62-1.67-5.71-2.77-1.84-.97-3.64-1.75-5.43-2.34-.04.03-.07.07-.09.11-.95,2.17-.23,5.4.25,7.72,1.4,6.83,3.78,14.02,5.54,20.31.96,3.44,1.91,6.24,2.84,8.38,1.41,3.27,2.65,6.09,3.72,8.46.06.13.63,1.13,1.7,3,1.72,2.99,4.14,6,5.84,8.6,1.64,2.52,3.01,4.39,4.09,5.61,3.93,4.42,8.48,7.9,13.66,10.47.52.25,2.6,1.14,6.22,2.67,1.05.44,2.04.78,2.98,1.01.18.04.35.09.52.12.3-.04.56-.11.78-.21,2.32-.94,4.01-1.92,5.7-1.68.38.06.68.35.75.73.06.35.12.69.18,1.03,1.74-.76,3.14-1.39,4.54-1.19.38.06.68.35.75.73.98,5.76,2.17,11.28,3.57,16.58.9,3.43,1.97,6.42,3.2,8.99,1.64,3.44,3.11,6.26,4.42,8.45,1.32,2.23,3.77,5.98,7.32,11.25,1.95,2.9,4.67,6.2,6.13,8.06,6.01,7.66,13.21,14.62,21.6,20.86,2.75,2.05,5.6,3.93,8.54,5.65,6.71,3.91,13.08,7.22,19.09,9.9,5.35,2.39,10.68,3.95,15.98,4.75,10.84.62,21.64-1.77,32.51-6.43,7.26-3.12,13.57-7.23,18.93-12.34,1.78-1.7,3.55-3.12,5.3-4.95.13-.14,2.14-2.29,6.03-6.43,7.01-7.47,12.59-15.5,18.28-25.09,1.69-2.86,3.25-5.89,4.7-9.08,1.69-3.74,3.01-6.88,3.96-9.44,5-13.43,8.71-27.27,11.11-41.52.12-.73.7-4.38,1.74-10.96.72-4.51,1.19-8.18,1.4-11ZM527.16,375.11c-11.49-.82-20.04-3.9-20.04-3.9-13.15-4.74-22.24-12.31-27.59-17.74-.85-.86-1.6-1.66-2.26-2.39-.21.18-.42.36-.64.54-.23.19-.46.39-.69.58-1.64,1.36-4.14.67-4.84-1.34-.95-2.75-.64-5.66.84-7.71,2.11-2.9,6.59-4.04,10.58-2.45.01,0,.03,0,.04.02,1.95.79,2.55,3.27,1.14,4.85l-.83.96c9.81,10.62,19.7,15.6,25.68,17.99,4.45,1.78,8.08,2.65,10.06,3.1,3.15.7,6.44,1.18,9.76,1.37,7.2.41,14.55-.54,20.98-3.55,1.82-.85,3.57-1.87,5.19-3.07,1.65-1.22,2.78-2.64,5.07-2.4.27.03.55.09.78.24.21.14.36.36.49.58.21.36.36.73.45,1.1.44,1.73-.32,3.49-1.67,4.73-2.05,1.86-4.36,3.41-6.75,4.79-3.03,1.76-6.52,2.58-9.95,3.13-5.51.88-10.92.95-15.8.6h-.02Z"/>
      <path class="cls-3" d="M514.43,413.06c-7.12-.41-14.27-2.11-21.45-5.32-6.02-2.68-12.38-5.98-19.09-9.9-2.94-1.71-5.79-3.59-8.54-5.65-8.39-6.25-15.59-13.2-21.6-20.86-1.46-1.86-4.18-5.16-6.13-8.06-3.55-5.27-6-9.02-7.32-11.25-1.3-2.19-2.78-5.01-4.42-8.45-1.23-2.57-2.3-5.57-3.2-8.99-1.31-4.98-2.45-10.15-3.39-15.55,1.74-.76,3.14-1.39,4.54-1.19.38.06.68.35.75.73.98,5.76,2.17,11.28,3.57,16.58.9,3.43,1.97,6.42,3.2,8.99,1.64,3.44,3.11,6.26,4.42,8.45,1.32,2.23,3.77,5.98,7.32,11.25,1.95,2.9,4.67,6.2,6.13,8.06,6.01,7.66,13.21,14.62,21.6,20.86,2.75,2.05,5.6,3.93,8.54,5.65,6.71,3.91,13.08,7.22,19.09,9.9,5.35,2.39,10.68,3.95,15.98,4.75Z"/>
      <path class="cls-10" d="M428.58,280.86c.05,1.62.12,3.25.21,4.87-.09-1.62-.15-3.25-.21-4.87Z"/>
      <path class="cls-10" d="M467.46,208.3c.23-.75.43-1.49.63-2.23-.21.86-.43,1.6-.63,2.23Z"/>
      <path class="cls-10" d="M474.05,204.74c-.02.06-.04.13-.05.19l-.45-.39c-1.16-.94-2.32-1.88-3.47-2.83.24-.34.74-.16,1.48.56.92.88,1.72,1.69,2.5,2.45Z"/>
      <path class="cls-10" d="M524.66,231.54s-.1.04-.15.03c-1.81-.29-3.59-.7-5.34-1.19-.6-1.21-1.01-2.15-1.24-2.83-2.41-7.14-4.06-12.7-4.95-16.67-.37-1.66-.87-3.98-1.48-6.94-.02-.12-.05-.19.38-.56.08-.08.2-.13.32-.12.51.02,1.02.25,1.51.66,1.31,1.1,2.59,2.22,3.84,3.34.35,1.69.66,3.08.91,4.2.89,3.98,2.54,9.53,4.95,16.67.25.73.7,1.76,1.37,3.09.06.12,0,.26-.11.33Z"/>
      <path class="cls-3" d="M411.87,319.16c-.75.13-1.71.11-2.9-.03-.54-.07-1.57-.29-3.08-.66-.94-.23-1.93-.57-2.98-1.01-3.62-1.52-5.69-2.41-6.22-2.67-5.18-2.57-9.74-6.05-13.66-10.47-1.08-1.22-2.45-3.09-4.09-5.61-1.69-2.6-4.12-5.61-5.84-8.6-1.07-1.87-1.64-2.87-1.7-3-1.07-2.37-2.31-5.19-3.72-8.46-.93-2.14-1.87-4.94-2.84-8.38-1.76-6.28-4.14-13.48-5.54-20.31-.47-2.31-1.19-5.55-.25-7.72.07-.14.22-.23.38-.24,1.8-.02,3.04.06,3.7.24.49.13.99.28,1.48.45-.04.03-.07.07-.09.11-.95,2.17-.23,5.4.25,7.72,1.4,6.83,3.78,14.02,5.54,20.31.96,3.44,1.91,6.24,2.84,8.38,1.41,3.27,2.65,6.09,3.72,8.46.06.13.63,1.13,1.7,3,1.72,2.99,4.14,6,5.84,8.6,1.64,2.52,3.01,4.39,4.09,5.61,3.93,4.42,8.48,7.9,13.66,10.47.52.25,2.6,1.14,6.22,2.67,1.05.44,2.04.78,2.98,1.01.18.04.35.09.52.12Z"/>
      <path class="cls-18" d="M559.67,366.6c-2.05,1.87-4.36,3.41-6.75,4.79-3.03,1.75-6.51,2.58-9.95,3.13-18.5,2.96-35.85-3.31-35.85-3.31-15.23-5.49-25-14.79-29.84-20.14-.45.37-.89.74-1.34,1.12-1.64,1.36-4.14.67-4.84-1.34-.95-2.75-.64-5.67.85-7.71,2.12-2.91,6.62-4.05,10.62-2.43,1.95.79,2.54,3.27,1.15,4.85l-.84.96c9.81,10.62,19.7,15.6,25.69,17.99,4.45,1.78,8.08,2.65,10.06,3.09,9.97,2.23,21.33,2.21,30.75-2.18,1.82-.85,3.57-1.87,5.19-3.07,1.65-1.22,2.78-2.64,5.07-2.4.27.03.55.09.78.24.21.14.36.36.49.58,1.19,2.05.42,4.33-1.22,5.83Z"/>
      <g class="cls-1">
        <path class="cls-8" d="M496.2,90.38c-53.45,3.9-94.57,31.61-115.11,64.52-2.06,3.27-.76,7.08,2.47,8.63h0c3.24,1.55,7.14.48,9.16-2.5,20.16-30.4,60.33-55.44,111.84-56.52,5.03-.09,7.65-3.22,5.45-7.29,0,0,0,0,0,0-2.19-4.07-8.55-7.26-13.81-6.84Z"/>
      </g>
      <g class="cls-1">
        <path class="cls-8" d="M616.13,385.3c21.14-12.69,37.56-29.15,40.62-47.05.32-1.76-1.4-3.41-3.62-3.74h0c-2.22-.33-4.08.68-4.38,2.31-2.91,16.78-18.55,32.6-39.26,44.58-2.04,1.18-2.32,3.04-.51,4.16,0,0,0,0,0,0,1.81,1.12,5.05,1.01,7.14-.26Z"/>
      </g>
      <path class="cls-15" d="M700.56,266.18c1.25-17.96.04-36.09-3.64-53.71-2.05-9.82-5.03-19.6-8.93-29.33-16.1-40.19-45.85-73.67-83.91-94.45-33.01-18.02-71.52-25.92-108.97-22.45-42.74,3.97-83.12,22.52-114.15,52.14-21.44,20.47-37.89,46.48-47.76,74.38-15.83,44.75-14.7,94.66,4.54,138.15,3.08,6.96,6.15,13.14,9.23,18.53,2.16,3.8,3.92,6.67,5.27,8.64,3.6,5.2,7.21,10.67,11.13,15.33,4.93,5.86,10.07,11.42,15.4,16.65,4.93,4.84,9.17,8.58,12.73,11.23.53.4.93.79,1.19,1.17.01.01.02.03.02.04.17.3.06.68-.24.85-2.04,1.15-3.72,2.74-5.02,4.76-1.11,1.69-2.03,3.49-2.78,5.41-.66,1.7-1.14,3.67-1.43,5.9-.5,3.79-.78,6-.81,6.63-.34,4.78-.6,8.06-.81,9.82-.42,3.48-.48,6.27-.2,8.37.68,5.1,2.44,9.68,5.26,13.75,8.68,12.5,22.78,20.28,36.26,26.67,21.29,10.08,46.79,15.72,70.21,17.68,24.02,2.01,48.44-.82,71.32-8.4,5.21-1.72,10.1-4.35,14.84-7.14,4.34-2.56,8.06-6.14,11.06-9.57,2.23-2.57,4.02-5.52,5.35-8.85.75-1.88.94-3.14,1.59-5.56.07-.25.11-.51.13-.77.34-4.46.85-9.27,1.56-14.43.09-.68.12-2.6.1-5.74,0-.84.02-1.51.09-2,.23-1.68-.1-2.8-.54-4.94-.73-3.57-2.09-6.8-4.08-9.71-.05-.08-.09-.13-.09-.28-.01-.46.26-.88.67-1.07,40.9-19.8,74.41-56.27,91.6-98.21,7.76-18.92,12.35-39.1,13.76-59.5ZM585.77,465.72c-.13.29-.27.59-.41.88-1.6,3.29-4.14,6.1-6.95,8.4-1.58,1.29-3.3,2.41-5.11,3.37-1.3.7-3.54,1.67-6.69,2.92-7.77,3.09-15.8,5.55-23.96,7.36-8.19,1.82-16.55,2.75-24.95,3.06-8.51.32-17.03.02-25.52-.72-8.71-.75-17.39-1.85-25.94-3.65-1.34-.28-2.69-.59-4.03-.91-2.95-.71-5.84-1.57-8.78-2.33-4.11-1.07-8.16-2.34-12.15-3.78-7.72-2.79-15.2-6.21-22.47-10-6.86-3.58-13.65-7.56-19.28-12.92-2.37-2.25-4.28-4.69-5.7-7.65-.28-.59-.47-.99-.57-1.2-2.31-4.85-2.38-10.7-1.53-15.82,0-.03.03-.07.06-.09.07-.06.71-.21.74-.22.12-.06.27-.01.32.1.36.75,1.01,1.7,1.39,2.1,2.94,3.19,5.85,5.76,8.71,7.71,7.73,5.29,15.8,9.91,24.22,13.89,10.8,5.1,21.54,9.11,32.24,12.01,4.51,1.23,9.36,2.38,14.55,3.46,4.13.86,9.06,1.61,14.78,2.24,13.27,1.46,26.37,1.85,39.29,1.14,7.74-.42,14.9-1.42,21.5-2.99,7.42-1.76,12.95-2.96,18.96-5.7,5.61-2.54,10.58-5.33,14.92-8.36,1.44-1.01,2.69-2.08,3.75-3.21.04-.04.09-.07.15-.06.1.01.18.11.17.21,0,0,.24.99.24,1.17-.05,3.27-.65,6.55-1.95,9.57ZM411.96,415.03c.46.28.82.64,1.09,1.1.07.13.12.27.13.42.34,4.75,3.5,7.99,7.07,10.67,2.68,2,6.05,4.13,10.11,6.38,10.27,5.68,21.18,10.14,32.77,13.39,12.07,3.39,24.34,5.57,36.81,6.55.98.08,3.97.2,8.95.37,8,.29,15.66-.1,23.5-1,7-.8,12.65-2.16,20.49-4.11,4.16-1.04,8.17-2.65,12-4.84,2.66-1.52,6.03-4.18,6.89-7.01.26-.85.43-1.77.51-2.75.04-.49.35-.91.8-1.1l13.75-5.54c.34-.13.73,0,.91.32,4.96,8.76-.57,16.92-7.76,22.21-10.67,7.84-24.02,12.54-37.11,14.61-9.26,1.47-18.34,2.2-27.23,2.19-8.2,0-15.26-.37-21.17-1.08-6.43-.77-10.62-1.28-12.59-1.49-1.9-.21-3.91-.57-6.04-1.07-2.47-.6-5.57-.96-8.03-1.59-8.41-2.13-15.16-4.1-20.26-5.93-2.26-.81-5.44-2.06-9.54-3.73-7.75-3.17-14.96-6.91-21.62-11.2-7.94-5.13-16.29-10.9-20.09-19.59-.8-1.85-1.13-3.78-.97-5.8.2-2.54,1.74-5.3,3.16-7.43.33-.51,1.01-.65,1.52-.33,3.82,2.39,7.8,4.85,11.96,7.39ZM411.81,402.61s12.05-4.21,18-5.26c.66-.12,1.04-.03,1.13.28,0,.02.01.05,0,.08l-1.22,8.35c-.08.53-.46.95-.97,1.07l-7.8,1.92c-.46.11-.95.02-1.33-.26l-7.92-5.74s-.08-.09-.1-.15c-.02-.14.06-.26.2-.28ZM419.11,318c-.07-.38-.37-.67-.75-.73-1.69-.25-3.39.74-5.7,1.68-.79.32-2.02.38-3.68.17-.54-.07-1.57-.29-3.08-.66-.94-.23-1.93-.57-2.98-1.01-3.62-1.52-5.69-2.41-6.22-2.67-5.18-2.57-9.74-6.05-13.66-10.47-1.08-1.22-2.45-3.09-4.09-5.61-1.69-2.6-4.12-5.61-5.84-8.6-1.07-1.87-1.64-2.87-1.7-3-1.07-2.37-2.31-5.19-3.72-8.46-.93-2.14-1.87-4.94-2.84-8.38-1.76-6.28-4.14-13.48-5.54-20.31-.47-2.31-1.19-5.55-.25-7.72.07-.14.22-.23.38-.24,1.8-.02,3.04.06,3.7.24,2.26.62,4.56,1.55,6.91,2.79,2.09,1.1,3.98,2.02,5.71,2.77,5.57,2.43,12.57,6.24,15.8,7.92.23.12.44.26.64.41.22.18,1.11.88,2.69,2.12.57.45.89,1.02.97,1.71.38,3.63.87,7.2,1.44,10.71,0,0,0,0,0,.01.04.3-1,.95-1,.95,0,.02-.2.2-.3.14-1.7-.96-2.91-2.51-4.32-3.85,0,0-3.46-3.93-8.88-5.08-2.57-.54-5.53-.39-5.75.44-.11.41.5.9,4.03,3.46,1.47,1.07,2.24,1.55,3.54,2.55,3.33,2.55,5.92,5.77,8.79,8.81.28.29.37.72.24,1.1-1.05,3.01-1.56,6.29-1.54,9.82.01,2.91.76,5.41,2.24,7.49,1.17,1.64,3.37,4.38,5.44,4.71.06,0,.13,0,.2-.01.21-.07.32-.3.25-.51-1.51-4.52-2.62-8.74-2.81-13.65-.02-.51.04-1.02.17-1.5.36-1.26.72-2.31,1.08-3.15.2-.46.62-.68,1.24-.64.37.02.7.34.98.98,1.37,3.12,3.17,6.46,5.38,10,.92,1.49,1.99,2.94,3.21,4.36.34.41,1.5,1.79,3.47,4.16.93,1.12,2.43,2.61,4.52,4.47,3.54,3.16,7.78,5.47,12.7,6.94.48.14.85.2,1.13.18,0,0,0,0,.01,0,.21-.03.35-.23.32-.44-.04-.22-.07-.44-.1-.66-.13-.79-.25-1.58-.36-2.37s-.23-1.58-.34-2.38c-.09-.61-.17-1.23-.25-1.84-.11-.79-.21-1.57-.29-2.35-.1-.83-.2-1.66-.29-2.49-.09-.81-.18-1.61-.26-2.42-.09-.81-.16-1.62-.23-2.43-.07-.81-.14-1.62-.21-2.43s-.13-1.62-.19-2.43c-.12-1.62-.22-3.24-.3-4.87-.09-1.62-.16-3.25-.21-4.87-.08-2.44-.13-4.88-.13-7.33,0-1.22.26-2.75.25-4.07-.05-3.95.19-8.33.74-13.13.04-.34.28-.62.6-.7,2.2-.59,4.05-1.41,6.03-2.81,2.29-1.62,3.99-2.98,5.11-4.07,1.3-1.27,2.73-2.55,3.67-3.54,5.44-5.66,10.15-11.99,14.15-18.96,1.46-2.54,2.33-3.94,3.23-5.86.44-.94.87-1.86,1.32-2.74,0,0,0-.01,0-.02.16-.33.33-.66.5-.98.16-.33.33-.65.5-.97.32-.63,1.07-2.43,2.22-5.4.07-.19.14-.37.2-.54.17-.47.31-.9.45-1.33.02-.03.02-.07.03-.1.2-.62.42-1.37.63-2.23v-.02c.34-1.43.67-3.19.85-5.27.38.31.76.62,1.15.93,1.15.94,2.31,1.88,3.47,2.83l.45.39,3.34,2.87c.41.35.81.69,1.21,1.03,1.43,1.22,2.82,2.41,4.15,3.55,4.34,3.74,9.12,6.99,13.84,9.95.26.17.53.34.8.5,2.1,1.3,4.19,2.4,6.25,3.3,4.78,2.06,9.97,3.97,15.45,4.86.05.01.11,0,.15-.03.12-.06.17-.21.11-.33-.67-1.33-1.12-2.36-1.37-3.09-2.41-7.14-4.06-12.7-4.95-16.67-.37-1.66-.87-3.98-1.48-6.94-.02-.12-.05-.19.38-.56.08-.08.2-.13.32-.12.51.02,1.02.25,1.51.66,5.27,4.44,10.06,9.06,14.39,13.83,5.36,5.91,9.99,12.42,13.89,19.5,2.1,3.81,3.52,7.14,4.26,9.99.95,3.64,1.38,7.23,1.31,10.79,0,.03,0,.05.02.08.04.14.18.22.32.19,1.56-.43,2.25-1.19,3.48-2.49,4.24-4.43,7.58-9.25,9.8-14.98.91-2.35,1.61-4.37,2.1-6.06.57-2.01.91-3.17,1.03-3.5.86-2.54,1.06-4.74,1.71-7.5.08-.35.33-1.91.57-4,.31-2.74.64-6.87.53-12.22,5.83,6.19,11.31,11.48,16.18,15.91,2.38,2.16,4.62,4.12,6.69,5.88.43.36.85.72,1.26,1.06,15.38,12.9,23.3,16.37,24.1,16.84,1.17.68,2.18,1.2,3.04,1.56.66.27.98.81.95,1.59-.13,3.61.2,7.42.19,10.98,0,4.92-.73,9.12-1.15,14.45-.22,2.82-.69,6.49-1.4,11-1.04,6.58-1.62,10.23-1.74,10.96-2.41,14.25-6.11,28.09-11.11,41.52-.95,2.55-2.27,5.69-3.96,9.44-1.45,3.2-3.01,6.23-4.7,9.08-5.69,9.59-11.26,17.62-18.28,25.09-3.89,4.14-5.91,6.29-6.03,6.43-1.75,1.84-3.52,3.25-5.3,4.95-5.36,5.11-11.67,9.23-18.93,12.34-18.01,7.72-35.83,9.21-53.96,1.11-6.02-2.68-12.38-5.98-19.09-9.9-2.94-1.71-5.79-3.59-8.54-5.65-8.39-6.25-15.59-13.2-21.6-20.86-1.46-1.86-4.18-5.16-6.13-8.06-3.55-5.27-6-9.02-7.32-11.25-1.3-2.19-2.78-5.01-4.42-8.45-1.23-2.57-2.3-5.57-3.2-8.99-1.4-5.29-2.59-10.81-3.57-16.58ZM415.97,349.08c-1.12,1.44-2.24,2.95-3.37,4.55-2.15,3.07-4.01,6.05-5.63,8.9-4.79-4.45-6.95-9-7.92-11.58-1.11-2.94-1.88-5.76-2-9.51-.1-3.05.39-7.09.16-10.34-.04-.57-.13-1.09-.28-1.56-.11-.32-.42-.55-.76-.55-3.55.01-7.19,1.09-10.65,1.57-4.03.57-7.88-.06-11.55-1.88-.78-.39-1.3-.92-1.54-1.59-.11-.32-.05-.67.16-.94,2.86-3.55,5.22-7.14,7.07-10.76.15-.28.47-.42.77-.34.55.15,1.11.47,1.67.95,3.77,3.23,8.16,6.52,12.82,8.36,2.52,1,5.1,1.87,7.72,2.59,1.86.5,5.14.59,6.54,2.02.4.41.64.95.89,1.46,2.72,5.93,5.73,12.01,5.92,18.63ZM645.74,281.09c-.4-.12-.84-.07-1.31.14-1.16.52-2.33.93-3.53,1.23-.13.03-.26.03-.38,0-.39-.1-.61-.5-.51-.89l2.71-9.83c.09-.32.35-.56.67-.63,4.57-.92,8.76-1.84,12.59-2.78,1-.24,2.33-.25,2.96-.44.09-.03.2-.04.3-.03.7.08,1.08.54,1.14,1.36,0,.13,0,.26-.04.38-.13.54-.42,1.29-.84,2.24-1.47,3.28-2.91,6.62-4.31,9.99-1.75,4.22-3.45,7.59-5.06,11.54-1.12,2.77-2.38,5.34-3.75,7.71-1.44,2.46-2.55,4.38-3.34,5.75-3.26,5.7-7.38,10.73-12.37,15.08-3.56,3.11-7.52,6.13-11.91,9.06-.5.33-.91.5-1.25.51-.08,0-.15,0-.23-.04-.39-.12-.62-.54-.49-.94.92-2.99,1.69-5.9,2.31-8.74.47-2.12,1.01-3.14,2.45-4.87,3.06-3.68,5.13-6.31,6.22-7.89,2.03-2.96,3.67-5.82,4.93-8.6,1.68-3.7,2.73-6.02,3.18-6.95.26-.54.63-1.02,1.1-1.4,3.4-2.77,6.41-6.14,9.05-10.14.03-.04.05-.09.07-.15.08-.3-.08-.6-.38-.68ZM647.6,260.31c-.08.13-.27.29-.42.36-2.38.97-4.88,1.53-7.51,1.66-.42.02-.92.11-1.5.27-.42.11-.71.49-.75.91-.46,6.57-1.73,13.08-3.82,19.51-1.99,6.13-4.66,10.18-5.65,11.39-1.43,1.72-2.82,2.97-3.83,3.78.71-7.79,1.41-15.58,2.11-23.38.91-12.47,1.67-21.59,1.86-22.4.09-.4.58-1.11.76-1.22.13-.09.29-.12.45-.09,1.65.31,3.74.35,6.26.13.05,0,.1-.01.14-.03.32-.1.48-.44.38-.76-1.14-3.27-2.32-6.27-3.53-9-2.13-4.82-3.93-9.15-6.36-14.91-1.27-3.01-1.93-5.95-1.99-8.82-.03-1.28.68-1.75,2.1-1.45.9.19,2.76.59,5.58,1.2.42.09.76.41.87.84.83,3.15,1.6,6.51,2.31,10.08.58,2.93,1.19,5.5,1.85,7.72,1.34,4.53,2.1,7.06,2.29,7.6,1.33,3.66,3.2,7.44,5.59,11.36.92,1.52,1.56,2.05,2.7,3.41.05.06.1.14.14.22.26.63.25,1.16-.02,1.62ZM632.62,208.16c-8.65-1.76-16.43-5.25-23.34-10.49-1.13-.86-2.44-1.97-3.96-3.33-2.25-2.03-3.56-3.17-3.93-3.43-.15-.11-.33-.15-.52-.11-.02,0-.04.02-.07.03-.1.07-.14.2-.07.31,3.2,5.23,6.21,10.67,9.04,16.31.69,1.39,2.09,4.56,4.61,11.07,2.24,5.8,5.2,13.81,8.41,23.7-1.94-1.23-3.82-2.44-5.61-3.65-5.57-3.72-10.43-7.28-14.55-10.46-3.33-2.57-6.31-5.01-8.85-7.16-5.08-4.31-8.4-7.46-9.21-8.21-1.33-1.23-2.16-2.03-2.48-2.38-1.07-1.18-2.24-2.03-3.33-3.13-2.26-2.28-4.27-4.32-6.02-6.09-5.48-5.55-10.33-11.02-15.7-15.78-.06-.06-.15-.09-.23-.07-.16.03-.25.17-.22.32.54,3.01.95,6.39,1.21,10.15.34,4.77.81,11.67.48,18.29-.35,6.94-.72,13.25-3.51,20.93-.86,2.39-1.75,4.3-2.37,5.57-.25-.55-.63-1.36-1.1-2.34-2.15-4.5-4.07-8.1-4.77-9.35-2.81-4.99-6.24-9.81-10.32-14.46-5.36-6.13-11.36-12.02-17.98-17.69-5.71-4.88-11.77-9.86-18.19-14.95-.04-.03-.1-.06-.16-.07-.19-.02-.35.1-.38.28-.04.32-.04.73,0,1.26.08,1-.62,1.08,1.1,9.45.75,3.62,2.84,12.87,6.07,25.22-2.44-1.08-6.12-2.87-10.25-5.61-3.91-2.58-10.13-8.02-17.23-15.41-4.46-4.63-8.37-8.73-11.72-12.31-.92-.98-2.81-2.56-4.02-1.14-.1.12-.16.26-.18.42-.64,6.52-1.82,13-3.52,19.45-.64,2.44-1.44,4.88-2.4,7.3-.48,1.22-1,2.44-1.56,3.65-1.52,3.31-3.16,6.33-4.9,9.06-.31.49-.62.97-.94,1.43-5.72,8.5-8.06,13.21-12.17,16.67-2.93,2.47-5.71,4-7.51,4.87,2.91-30.16,3.41-35.77,3.39-35.87-.03-.09-.08-.12-.08-.12-.07-.04-.15,0-.18.06-1.19,2.28-2.28,4.77-3.29,7.45-2.53,6.74-5.12,11.57-8.01,30.37-3.21,20.85-1.65,40.34-.65,49.48-1.81-1.81-3.95-4.18-6.13-7.13-2.22-2.99-3.68-5.52-4.36-6.77-1.57-2.92-3.03-6.19-4.35-9.83-1.36-3.71-2.31-7.47-2.86-11.27-.67-4.66-1.32-9.99-1.04-15.14.2-3.71.57-8.03,1.07-12.94.24-2.33,1.06-4.8,1.18-7.19,0-.11-.05-.21-.14-.27-.14-.09-.33-.05-.42.09-1.65,2.53-3.33,4.84-5.03,6.93-2.82,3.47-6.2,6.16-10.12,8.1-.72.35-1.42.36-2.08.02-2.34-1.2-6.37-3.13-12.1-5.78-.93-.43-2.54-1.16-1.49-2.44,1.35-1.66,2.77-3.38,4.29-5.15,1.69-1.98,3.08-3.73,4.15-5.26,2.36-3.36,4.39-6.91,6.08-10.65,2.1-4.64,3.83-8.68,5.18-12.13,2.78-7.08,6.08-14.13,9.9-21.14.68-1.24,2.06-3.18,4.14-5.82,1.58-2,3.21-3.72,4.9-5.16,4.25-3.63,9.04-6.75,14.36-9.35,3.07-1.5,5.91-2.53,8.51-3.08,4.74-.99,9.81-1.57,14.44-.5.34.08.7-.06.9-.33,4.15-5.58,9.32-10.15,15.49-13.69,1.34-.77,2.78-1.55,4.31-2.33,1.3-.67,3.31-1.49,6.02-2.45,9.34-3.32,18.96-5.27,28.86-5.84.82-.05,1.8-.04,2.94.02.16.01.32.01.48,0,2.12-.2,4.07-.25,5.82-.13,1.28.09,3.07.19,5.36.32,2.88.16,4.74.29,5.61.43,2.28.34,5.66.88,10.16,1.63,2.1.35,5.86,1.27,11.26,2.73,20.35,5.53,38.44,15.75,54.28,30.66,2.97,2.79,7.76,7.33,14.38,13.6.19.17,1.63,1.53,4.34,4.07,1.74,1.64,3.24,2.96,4.46,3.96,1.67,1.36,6.99,5.97,11.04,8.74,3.5,2.4,9.38,5.75,18.26,8.07-2.65,1.48-7.2,3.54-13.07,3.73-2.96.1-5.16-.26-7.8-.81ZM577.05,419.81c.18.11.49.61.51.65.04.08,0,.19-.08.23-2.8,1.29-6.04,2.75-9.71,4.37-.61.27-1.24.39-1.86.37-.15,0-.29-.05-.42-.11-1.96-.99-4.05-1.86-6.26-2.63-3.89-1.34-8.02-2.37-12.38-3.06-.2-.03,7.1-3.85,7.97-4.26.15-.07,5.14-3.5,5.14-3.5.2-.14.47-.15.68-.02,0,0,12.22,5.66,16.41,7.97ZM535.82,442.04c-.05.1-.15.17-.31.2-7.66,1.61-14.08,2.04-22.47,2.24-13.89.32-27.7-1.56-41.57-4.76-6.81-1.57-12.9-3.8-20.3-6.52-3.27-1.21-6.47-2.58-9.58-4.15-1.58-.8-3.37-1.48-4.61-2.79-1.74-1.85-1.31-3.83-.48-6,1.4-3.66,2-7.65,2.83-11.48.9-4.14,1.74-8.28,2.42-12.46.41-2.5.77-5.01,1.31-7.48.11-.52.3-1.11.8-1.28.6-.21,1.18.31,1.61.77,3.27,3.59,6.97,6.83,10.83,9.76,11.99,9.05,25,16.23,39.05,21.54,6.06,2.29,10.84,2.75,18.78,3.7,2.06.24,4.05.13,6.38.13,5.22.02,10.19-.57,14.89-1.76.07-.02.14-.02.21-.03.48,0,.87.38.87.87.02,6.02,0,12.09-.08,18.2-.01.6-.19.91-.54.94.03.14.02.27-.04.37ZM684.16,297.81c-1.81,7.25-3.64,13.24-5.5,17.97-2.43,6.18-4.66,11.42-6.68,15.73-.12.25-.2.44-.28.58-1.26,2.52-2.37,4.65-3.31,6.4-2.18,3.99-5.44,9.67-8.34,13.98-6.25,9.29-13.11,17.81-20.58,25.56-4,4.14-8.91,8.57-14.72,13.28-5.07,4.11-10.05,7.82-14.95,11.15-1.92,1.3-3.39,2.02-5.23,3.32-.23.17-.93.6-2.1,1.31-5.01,3.02-9.91,5.74-14.69,8.15-.45.22-.99.18-1.4-.11-4.32-3.1-9.56-6.08-15.71-8.96-.39-.18-.66-.37-.82-.6-.22-.29-.18-.69.06-.94,1.78-1.84,3.4-3.43,4.89-4.77,3.55-3.21,7.22-7.05,11.01-11.52,11.13-13.1,20-27.47,26.62-43.09.25-.58.71-1.05,1.3-1.28.64-.26,1.3-.59,1.98-.98,5.96-3.45,11.24-6.89,15.87-10.34,1.95-1.46,4.68-3.83,8.19-7.12,1.57-1.47,3.07-3.2,4.5-5.18.49-.68,1.86-2.53,4.11-5.53,1.72-2.3,3.51-5.18,5.39-8.61,1.19-2.19,2.4-4.34,3.8-6.44.22-.34.65-1.24,1.29-2.71,1.64-3.79,4.05-9.21,7.24-16.25,1.51-3.37,2.91-7.34,4.17-11.9.68-2.45.86-4.29.55-5.49-.93-3.55-4.21-4.8-7.86-6.43-4.19-1.89-7.62-4.3-10.43-7.64-1.44-1.71-2.8-4.05-4.09-7-3.38-7.71-5.61-15.57-6.69-23.56,0-.03,0-.06,0-.08,0-.29.25-.53.54-.52,2.99.09,5.77-.26,8.33-1.05.45-.13,1.51-.66,3.16-1.58,1.01-.56,1.97-1.24,2.87-2.04,3.42-3.01,6.21-6.36,8.4-10.05.21-.35.4-.76.54-1.22.17-.5-.08-1.05-.58-1.26-1.85-.76-5-1.92-9.47-3.49-1.34-.47-3.66-1.55-6.97-3.22-2.13-1.08-4.33-2.44-6.57-4.06-4.75-3.43-8.15-5.95-10.2-7.59-2.69-2.13-5.86-4.93-9.49-8.37-3.57-3.38-7.83-7.49-12.78-12.31-4.14-4.04-8.67-8.08-13.61-12.11-24.41-19.93-56.76-29.23-88.01-28.48-2.53.06-4.77.19-6.72.39-2.99.3-6.18.45-8.92.94-5.82,1.05-11,2.26-15.53,3.64-11.71,3.56-22.06,9.64-31.04,18.25-.7.67-1.56,1.02-2.59,1.04-11.44.25-23.18,3.94-31.97,11.36-4.28,3.62-8.08,7.26-11.39,10.93-3.34,3.71-6.3,8.77-8.3,13.11-3.01,6.5-4.83,10.64-5.5,12.4-1.78,4.72-3.41,8.67-4.88,11.88-2.27,4.96-4.88,9.65-7.84,14.08-3.08,4.61-7.21,8.51-11.88,11.12-.82.46-1.96.9-3.41,1.34-2.11.63-3.56,1.03-4.37,1.22-2.66.6-3.86,2.73-4.23,5.23-.79,5.36.06,10.42,1.33,16.39,1.16,5.41,2.51,10.25,4.07,14.51,1.41,3.86,2.67,7.97,4.04,12.07,1.23,3.65,2.85,7.31,4.85,10.97,2.93,5.33,6.15,10.36,9.68,15.07.44.59.49,1.47.16,2.63-1.36,4.69-3.64,9.58-6.72,13.58-2,2.6-2.99,3.89-2.99,3.9-.79,1.01-.75,1.9.12,2.66,2.99,2.66,5.78,4.9,9.59,6.35,4.67,1.77,10.03,3.02,15.03,3.23.32,0,.56.27.56.58-.03,6.8,1.84,13.06,5.58,18.76,1.1,1.68,2.89,3.87,5.35,6.57,1.82,2,3.82,3.69,5.99,5.05,2.3,1.45,3.61,2.39,5.86,3.09h0c2.36-4.61,4.72-9.23,7.07-13.84,1.07-2.09,3.98-2.31,5.34-.39,3.07,4.33,7.39,10.88,9.07,15.58.52,1.45.69,2.45.83,3.32.35,2.12-.85,5.78-1.63,9.72-.05.26-.26.45-.52.5-9.25,1.35-18.29,3.63-27.1,6.82-.11.04-.21.08-.3.15-.51.35-1.02.54-1.53.58-.2.01-.39-.05-.56-.16-.85-.59-1.74-1.28-2.67-2.08-6.23-5.32-10.57-9.24-13.03-11.74-4.93-5.03-8.81-9.23-11.62-12.61-1.49-1.79-4.44-5.61-8.84-11.46-2.09-2.77-5.5-8.08-10.24-15.94-1.07-1.75-3.2-6.01-6.39-12.74-2.44-5.13-4.32-9.47-5.64-13.04-6.54-17.56-10.1-35.66-10.69-54.29-.12-3.62.11-7.26.12-11.16,0-.88.09-2.37.24-4.47.5-6.85,1.31-13.66,2.45-20.42.67-3.99,1.87-8.18,2.63-11.58.84-3.87,1.99-7.46,2.99-11.09.4-1.45.88-2.91,1.44-4.37,2.78-7.21,4.26-11.45,6.77-16.75,3.46-7.28,7.19-14.87,11.5-21.44,3.62-5.51,7.09-10.73,11.26-16.27,1.42-1.89,3.53-4.35,6.3-7.36,5.76-6.27,9.14-9.89,10.18-10.86,4.38-4.13,8.98-8.28,13.59-11.64,4.12-3.01,7.74-5.87,12.65-9.05,3.32-2.15,5.54-3.59,6.67-4.31,3.3-2.11,8.28-4.7,14.93-7.78,5.41-2.5,11.75-4.99,19-7.45,4.75-1.62,9.37-2.95,13.88-4.01,4.39-1.02,6.75-1.58,7.08-1.66,2.23-.54,5.27-.77,7.01-1.19,1.52-.38,2.59-.32,4.06-.53,5.7-.8,9.43-1.24,11.19-1.3,2.09-.08,3.34-.15,3.75-.21,1-.14,2.24-.21,3.74-.21,3.7-.01,8,.04,12.89.15,7.4.17,14.84.84,22.31,2.04,1.11.18,2.73.69,4.1.89,3.56.53,5.75.92,6.58,1.17,1.49.44,3.26.89,5.29,1.34,4.46.97,9.31,2.45,14.58,4.4,3.84,1.43,7.25,2.74,10.24,3.95,8.35,3.36,15.71,7.01,22.09,10.94,2.84,1.75,5.61,3.46,8.1,5.23,5.81,4.12,11.87,8.49,15.63,11.9,4.71,4.26,8.78,8.12,12.22,11.59.86.86,3.01,3.26,6.47,7.19,2.24,2.56,4.23,4.98,5.94,7.28,3.88,5.2,6.07,8.18,6.54,8.92,2.27,3.53,4.23,6.67,5.88,9.41,1.2,2,3,5.38,5.41,10.14,8.87,17.55,14.54,36.74,17.23,56.15.28,2.04.53,4.57.74,7.61.28,4.05.51,6.11.61,10.17.43,17.12-1.4,33.92-5.51,50.41Z"/>
      <path class="cls-10" d="M474,204.94c-.52,1.94-.97,3.88-1.76,5.91-1.15,2.97-1.9,4.77-2.22,5.4-.78,1.5-1.56,3.07-2.32,4.72-.9,1.92-1.77,3.32-3.23,5.86-4,6.98-8.71,13.3-14.15,18.96-.94.99-2.37,2.26-3.67,3.54-1.12,1.1-2.82,2.45-5.11,4.07-1.98,1.4-3.83,2.22-6.03,2.81-.33.08-.57.36-.6.7-.55,4.8-.79,9.18-.74,13.13.01,1.32-.26,2.85-.25,4.07.06,13.05,1.12,26,3.18,38.87.03.21-.11.41-.32.44,0,0,0,0-.01,0-.27.02-.65-.03-1.13-.18-1.43-.42-2.8-.92-4.11-1.49-.12-.79-.25-1.58-.36-2.37s-.23-1.58-.34-2.38c-.09-.61-.17-1.23-.25-1.84-.11-.79-.21-1.57-.29-2.35-.1-.83-.2-1.66-.29-2.49-.09-.81-.18-1.61-.26-2.42-.09-.81-.16-1.62-.23-2.43-.07-.81-.14-1.62-.21-2.43s-.13-1.62-.19-2.43c-.12-1.62-.22-3.24-.3-4.87-.09-1.62-.15-3.25-.21-4.87-.08-2.44-.13-4.88-.13-7.33,0-1.22.26-2.75.25-4.07-.05-3.95.19-8.33.74-13.13.04-.34.28-.62.6-.7,2.2-.59,4.05-1.41,6.03-2.81,2.29-1.62,3.99-2.98,5.11-4.07,1.3-1.27,2.73-2.55,3.67-3.54,5.44-5.66,10.15-11.99,14.15-18.96,1.46-2.54,2.33-3.94,3.23-5.86.44-.94.87-1.86,1.32-2.74,0,0,0-.01,0-.02.16-.33.33-.66.5-.98.16-.33.33-.65.5-.97.32-.63,1.07-2.43,2.22-5.4.07-.19.14-.37.2-.54.16-.45.32-.89.45-1.33.02-.03.02-.07.03-.1.2-.62.42-1.37.63-2.23v-.02c.34-1.43.67-3.19.85-5.27.38.31.76.62,1.15.93,1.15.94,2.31,1.88,3.47,2.83l.45.39Z"/>
      <path class="cls-15" d="M497.69,222.51c-.08.03-.17.04-.25.02-.31-.04-.61-.11-.89-.19-.26-.08-.5-.18-.73-.29-8.62-4.15-17.66-5.94-27.13-5.37-1.45.08-3.15.41-5.14.97-.04.01-.09.03-.13.04-4.53,1.29-8.64,3.24-12.52,5.61,1.74-2.73,3.37-5.76,4.9-9.06.56-1.21,1.08-2.43,1.56-3.65,3.21-1.24,6.6-1.99,10.11-2.28,3.54-.29,7.19-.12,10.87.49.08.01.16.03.24.04,7.09,1.22,12.91,4.56,17.47,10.03.94,1.13,1.67,1.9,2,2.95.1.29-.06.6-.35.7Z"/>
      <path class="cls-15" d="M589.99,229.32c-4.44.12-8.84.8-13.22,2.02-.55.15-1.11-.13-1.26-.64-.38-1.33,2.15-3.62,3.2-4.42,1.45-1.1,2.98-2.05,4.58-2.84,2.38,2.16,4.62,4.12,6.69,5.88Z"/>
      <path class="cls-15" d="M502.07,320.67c-7.75,6.48-17.47,8.06-27.25,4.84-5.18-1.71-9.75-4.28-13.71-7.72-2.13-1.85-4.54-4.49-7.24-7.93-2.79-3.56-5.32-7.82-7.59-12.77-5.51-12.05-7.15-26.71-3.5-39.67,1.21-4.29,3.15-8.38,5.81-12.26,4.58-6.69,10.93-10.62,19.05-11.8,6.82-.99,14.3.09,20.49,3.2,4.17,2.1,7.88,4.81,11.15,8.14,12.13,12.34,17.48,30.34,16.12,47.43-.9,11.18-4.52,21.18-13.33,28.55Z"/>
      <path class="cls-15" d="M608.65,298.25c-1.17,3.58-2.77,7.13-4.79,10.63-7.3,12.63-19.28,26.04-35.5,22.65-6.74-1.4-11.7-6.87-14.31-13.21-3.14-7.62-3.76-15.89-2.93-24.19,1.25-12.54,5.65-25.42,13.05-35.52,3.32-4.53,7.92-8.87,13.14-11.09,3.36-1.43,6.51-2.48,10.29-2.31,9.9.44,17.91,4.64,21.91,14.1,1.62,3.82,2.59,7.42,2.91,10.79.89,9.35-.76,18.96-3.75,28.13Z"/>
      <ellipse class="cls-12" cx="595.24" cy="275.65" rx="13.8" ry="8.14" transform="translate(138.75 746.72) rotate(-70.75)"/>
      <ellipse class="cls-12" cx="493.18" cy="267.62" rx="8.49" ry="15.02" transform="translate(-60.98 179.54) rotate(-19.46)"/>
    </g>
    <g id="Artwork_99" data-name="Artwork 99">
      <g>
        <path class="cls-9" d="M453.34,261.72c.7,30.39-7.81,62.54-23.97,90.49-2.59,4.48-6.18,9.71-10.99,15.99-12.14,15.87-26.73,25.66-42.39,28.5-4.78,14.33-11.4,27.9-19.77,40.51,6.23,1.06,12.82,2.68,19.24,5.13,24.45,9.31,32.96,25.4,35.79,37.26,2.03,8.52,3.01,17.38,2.89,26.35-.15,13.22-6,26.5-16.04,36.43-7.3,7.22-15.78,13.85-25.18,19.72-11.26,7.03-23.23,13.07-35.59,17.96-20.47,8.09-41.8,13.88-63.38,17.21-5.3.82-10.52,1.52-15.52,2.09-27.82,3.16-53.04,2.59-77.12-1.72-17.8-3.19-34.77-9.24-50.43-17.96-6.11-3.4-14.72-9.34-21.12-18.33-6.82-9.6-8.83-20.33-9.82-28.61-.49-4.08-.79-7.43-.92-10.21-.67-14.24,4.58-27.52,15.19-38.36.01-.02.03-.03.05-.04-4.76-4.33-9.38-8.77-13.85-13.29-14.94-15.13-26.35-31.83-32.99-48.3-6.99-17.34-9.6-35.71-7.76-54.63.43-4.42,1.26-9.33,2.5-14.91-2.87-8.06-5.12-14.64-6.71-19.61-3.41-10.6-6.31-21.82-8.63-33.32-1.12-5.56-1.99-11.32-2.6-17.13-.51-4.97-.82-10.76-.91-17.2-.26-18.89,2.83-37.36,9.19-54.91,1.07-2.96,2.18-5.79,3.31-8.49l-13.96-22.12c-8.4-1.93-16.26-5.77-22.84-11.24-10.32-8.57-16.86-20.6-18.42-33.88-1.62-13.81,2.24-27.42,10.89-38.33,8.67-10.92,21.52-18.09,35.28-19.65,6.32-.72,12.67-.27,18.88,1.33,14.54,3.74,26.68,13.69,33.28,27.3.88,1.82,1.66,3.67,2.31,5.55.78-14.61,4.08-29.05,9.92-43.25,8.59-20.9,22.23-38.44,39.44-50.74,4.22-3.03,8.8-4.86,13.54-5.39,1.77-.2,3.54-.22,5.3-.05,7.93.73,14.69,3.96,19.52,9.07,13.73-10.22,29.4-16.87,46.74-19.8,1.08-.18,2.18-.34,3.29-.46,3.51-.4,7.23-.52,11.07-.36,10.75.45,20.24,6.05,25.38,14.98,4.39,7.63,5,16.81,1.82,25.17,2.71-.61,5.44-1.08,8.18-1.39l.62-.07c7.05-.73,13.98-.35,20.63,1.14,9.13,2.04,16.57,8.81,20.06,17.28,8.42-10.77,20.9-17.85,35.27-19.48,14.6-1.66,29.44,2.81,40.72,12.25,11.52,9.63,18.04,22.65,18.82,37.62.45,8.67-1.12,16.83-4.69,24.26-5.9,12.24-15.05,21.23-26.83,26.49-2.93,7.25-5.77,14.56-8.5,21.88,13.88,17.54,23.32,37.38,28.21,59.25,1.18-.31,2.31-.54,3.44-.71.45-.07.88-.12,1.3-.17,16.22-1.84,30.08,6.94,35.31,22.37,2.18,6.42,3.37,13.33,3.53,20.53Z"/>
        <path class="cls-13" d="M177.72,103.48c1.41-9.56,5.16-18.33,10.07-26.65,10.8-18.28,28.25-33.25,48.91-38.84.04-.01.09-.01.14,0,.12.04.18.17.14.29l-3.04,8.2c-4.56,2.62-8.47,5.53-11.73,8.75-17.7,17.47-28.18,42.64-31.12,67.32-.36,3.05-.41,6.09-.15,9.13,0,.03-.02.06-.04.08-.04.03-.1.02-.13-.02-2.62-4.69-4.83-9.58-7.54-14.4-1.8-3.2-3.6-6.39-5.38-9.57-.23-1.84-.27-3.27-.12-4.3Z"/>
        <path class="cls-19" d="M41.4,140.01c4,4.14,9.45,4.91,15.23,5.21,1.08.05,1.87,1.44,2.66,2.34.07.08.14.16.21.24,4.96,5.7,11.08,14.24,18.37,25.6,1.71,2.66,3.31,5.15,4.8,7.46,6.36,9.88,10.66,16.51,12.9,19.87.59.88.71,1.66.37,2.34-1.12,2.26-2.24,4.45-3.33,6.55-10.43,20.09-14.57,42.47-12.62,65.17.58,6.81,1.15,11.84,1.71,15.09,2.1,12.31,4.48,22.72,7.15,31.25.36,1.17.71,2.27,1.04,3.32,2.1,6.71,3.45,11.04,4.05,12.99,1.75,5.69,3,10.55,2.13,16.12-.11.67-.2,1.29-.29,1.87-.59,3.81-.9,5.85-.94,6.12-1.43,9.58-.92,19.16.52,29.08,3.3,22.68,17.03,41.36,32.83,57.4,9.7,9.85,20.02,18.93,30.96,27.26,3.2,2.44,7.47,5.24,12.83,8.39,7.63,4.49,16.46,8.33,25.19,9.66,13.07,1.99,26.44.24,38.89-3.56,4.76-1.46,9.93-3.58,15.51-6.35,26.54-13.23,49.91-33.43,67.85-56.88,3.89-5.07,7.39-10.29,10.52-15.64,5.44-9.28,9.75-18.99,12.94-29.12,1.87-5.94,3.08-10.93,3.64-14.99.35-2.55.66-4.86.93-6.94.22-1.68.41-3.2.58-4.58.45-3.72,1.52-7.37,2.82-11.33.06-.18.18-.26.37-.24.13,0,.21.07.25.18.73,2.01,1.57,4.51,2.53,7.49.73,2.28,1.68,4.15,2.85,5.64.11.13.21.26.31.38,4.66,5.48,12.06,4.38,17.93,1.53,1.04-.5,2.04-1.06,2.96-1.65,7.89-5.01,13.86-12.65,18.77-20.62.52-.84,1.02-1.68,1.52-2.53,9.23-19.46,13.93-40.93,13.43-62.6-.05-2.19-.34-4.48-.87-6.88,0-.02-.01-.05-.03-.07h0s-.02-.03-.03-.04c-.02-.03-.05-.05-.09-.06-.01-.01-.03-.01-.04-.02-.03,0-.05,0-.08,0h-.02s-.05.01-.07.03c-7.88,4.44-15.65,9.34-22.66,14.84-8.62,6.77-16.5,14.44-23.64,23.02-4.83,5.81-9.03,11.13-12.6,15.95-.02.03-.05.05-.08.08-.02.01-.05.03-.08.04-.02,0-.04.01-.06.01h0s-.07,0-.11,0h0s-.07-.02-.1-.05t-.01,0s-.03-.03-.05-.05c-.03-.04-.06-.08-.08-.13-.51-1.97.17-5.1.77-7.72,1.33-5.81,3.61-11.53,6.86-17.18.65-1.13,1.33-2.25,2.03-3.35,1.06-2.53,2.3-5.04,3.74-7.54,2.06-3.57,4.34-7.02,6.86-10.35.16-9.71-.65-19.38-2.42-29.01-.05-.27-.1-.55-.15-.82-3.43-18.02-10.83-34.22-22.2-48.6-.27-.67-.73-1.3-1.37-1.87l-.39-.48c-.53.92-1.16,1.78-1.92,2.39-1.04.83-2.34,1.19-4.04.58-1.25-.44-1.71-1.11-1.79-2.48-.24-3.64.03-6.84.82-9.57.16-.54.31-1.09.48-1.63.56-1.93,1.17-3.9,1.81-5.91.13-.42.26-.83.41-1.25.98-3.02,2.04-6.14,3.18-9.34.16-.45.32-.9.48-1.36.62-1.7,1.25-3.42,1.91-5.18,5.32-14.15,10.65-27.36,16-39.63.68-1.57,1.37-3.13,2.05-4.66.96-2.17,1.9-4.02,2.81-5.55.22-.38.61-.64,1.05-.7,2.02-.28,4.07-.81,6.16-1.59,1.95-.73,3.64-1.72,5.07-2.9.6-6.56-2.81-13.37-10.28-16.2-5.77-2.18-11.86-1.24-16.17,1.97-.05.86-.03,1.75.07,2.67.44,4.23,1.8,8.24,4.09,12.03.54.88.32,1.98-.11,2.98-5.07,11.84-8.23,19.1-9.47,21.78-1.88,4.03-3.93,7.93-6.16,11.71-4.38,7.44-9.43,14.39-15.16,20.84-2.67,3.01-5.7,5.28-9.08,6.84-.86.4-2.01.42-3.43.08-1.76-.42-2.76-1.45-3.02-3.07-.05-.29-.07-.61-.07-.93,0-.14,0-.27.01-.41h0c-7.41-5.79-17.02-9.35-26-11.25-.8-.17-1.78-.11-2.95.18-27.64,6.9-51.26,20.59-70.85,41.09-5.18,5.41-9.73,11.18-13.66,17.29-1.02,2.54-1.6,4.07-1.75,4.58-.52,1.76-1.36,3.14-2.53,4.15-.26.22-.53.41-.81.56-1.59.87-3.52.62-5.8-.72-4.87-2.89-8.22-5.03-10.06-6.43-10.55-8.04-21.41-17.79-29.46-28.45-4.96-6.55-9.21-13.18-12.75-19.86,0,0,0-.01,0-.02-.01-.02-.03-.03-.04-.05-.03-.02-.05-.04-.08-.05,0,0-.01,0-.02,0-.02,0-.04,0-.07,0-.03,0-.06.01-.08.03,0,0-.01,0-.02,0-9.5,6.34-17.73,14.65-24.96,23.38-.33.4-.92.46-1.33.14-6.45-5.18-12.63-10.89-18.53-17.12-3.35-3.54-7.47-8.46-12.35-14.77-4.88-6.31-8.75-11.44-11.6-15.39-.38-.53-.43-1.23-.13-1.81.88-1.67,1.57-3.45,2.06-5.32,1.98-7.49-1-15.82-8.65-18.47-9.98-3.47-20.26,3.37-21.06,13.51-.06.63-.08,1.27-.05,1.92.14,3.79,1.64,7.16,4.49,10.11Z"/>
        <path class="cls-2" d="M351.05,318.21c.01.05.04.09.08.13.01.02.03.03.05.05t.01,0s.07.04.1.05h0s.07,0,.11,0h0s.04,0,.06-.01c.03,0,.06-.02.08-.04.03-.02.06-.04.08-.08,3.57-4.82,7.77-10.14,12.6-15.95,7.13-8.58,15.02-16.25,23.64-23.02,7.01-5.51,14.79-10.4,22.66-14.84.02-.01.05-.02.07-.03h.02s.05,0,.08,0c.01,0,.03,0,.04.02.04,0,.07.03.09.06.01.01.02.02.03.04h0s.02.05.03.08c.52,2.4.81,4.69.87,6.88.5,21.66-4.2,43.14-13.43,62.6,13.02-22.17,19.79-47.7,19.19-73.49-.05-2.19-.34-4.48-.87-6.88,0-.02-.01-.05-.03-.07h0s-.02-.03-.03-.04c-.02-.03-.05-.05-.09-.06-.01-.01-.03-.01-.04-.02-.03,0-.05,0-.08,0h-.02s-.05.01-.07.03c-7.88,4.44-15.65,9.34-22.66,14.84-8.62,6.77-16.5,14.44-23.64,23.02-4.83,5.81-9.03,11.13-12.6,15.95-.02.03-.05.05-.08.08-.02.01-.05.03-.08.04-.02,0-.04.01-.06.01h0s-.07,0-.11,0h0s-.07-.02-.1-.05t-.01,0s-.03-.03-.05-.05c-.03-.04-.06-.08-.08-.13-.51-1.97.17-5.1.77-7.72.74-3.24,1.78-6.46,3.12-9.65-.7,1.11-1.38,2.22-2.03,3.35-3.25,5.65-5.53,11.37-6.86,17.18-.6,2.62-1.28,5.75-.77,7.72Z"/>
        <path class="cls-2" d="M344.77,191.3l.39.48c.64.57,1.1,1.19,1.37,1.87,11.37,14.38,18.77,30.58,22.2,48.6.05.27.1.54.15.82,1.77,9.63,2.57,19.3,2.42,29.01,1.49-1.97,3.06-3.9,4.71-5.78.63-.72.97-1.7,1.01-2.92.32-10.45-.47-20.85-2.37-31.2-.05-.27-.1-.55-.15-.82-3.43-18.02-10.83-34.22-22.2-48.6-.27-.67-.73-1.3-1.37-1.87l-.92-1.11s-.06-.05-.1-.07c-.11-.04-.22.03-.26.13-1.15,3.5-2.59,6.97-4.32,10.4-.18.35-.36.71-.57,1.05Z"/>
        <path class="cls-2" d="M197,210.11c3.93-6.11,8.48-11.88,13.66-17.29,19.6-20.5,43.22-34.19,70.85-41.09,1.17-.29,2.15-.35,2.95-.18,8.98,1.9,18.58,5.46,26,11.24.05-.95.3-1.77.72-2.46,1.77-2.88,3.62-5.41,5.56-7.61h0s0-.01,0-.01c.03-.03.04-.06.06-.1h0s.02-.08.01-.12-.01-.08-.04-.11c-.02-.03-.04-.06-.07-.09-7.48-6.01-17.31-9.69-26.48-11.62-.8-.17-1.78-.11-2.95.18-27.64,6.9-51.26,20.59-70.85,41.09-5.44,5.69-10.19,11.77-14.26,18.23-2.16,3.44-3.85,6.68-5.08,9.74-.03.08-.06.15-.08.22Z"/>
        <path class="cls-2" d="M352.79,88.28c4.3-3.21,10.4-4.16,16.17-1.97,7.47,2.83,10.89,9.64,10.28,16.2,9.05-7.47,7.58-22.51-4.52-27.09-10.17-3.85-21.37,2.04-21.93,12.86Z"/>
        <path class="cls-7" d="M183.22,117.35c2.72,4.82,4.92,9.71,7.54,14.4.02.03.05.04.08.04.05,0,.1-.04.1-.1-.26-3.03-.21-6.08.15-9.13,2.94-24.68,13.42-49.85,31.12-67.32,3.26-3.22,7.17-6.14,11.73-8.75-3.19,12.62-4.21,25.16-3.07,37.61,1.29,14.12,4.78,26.55,11.97,38.44.03.05.08.09.15.1.11.02.22-.06.24-.17.29-1.52.69-3.02,1.19-4.5,6.51-18.96,20.85-34.8,39.82-41.91.09-.03.19-.03.27.03.14.09.18.27.09.41-10.53,17.3-15.18,36.11-13.94,56.45.01.19-.11.36-.29.42-34.06,10.24-62.22,32.6-80.02,63.25-1.34,2.31-2.5,4.76-3.49,7.35,0,.02-.02.04-.03.05-.08.11-.22.13-.33.05l-3.76-2.76c.24-.01.39-.1.44-.28.03-.09,0-.2-.07-.26-1.6-1.33-2.63-2.82-3.08-4.48-.11-.41-.29-.79-.53-1.14-9.95-14.71-17.34-31.26-22.49-48.17-3.13-10.29-6.01-20.43-5.76-31.33.22-9.19.92-16.88,2.09-23.06.92-4.88,1.88-8.48,2.86-10.8.57-1.36,1.66-3.4,3.26-6.13,1.15-1.97,2.58-3.33,4.29-4.09,1.5,8.05,3.65,15.57,6.44,22.56,1.83,4.6,4.39,9.14,7.67,13.64,1.79,3.18,3.58,6.37,5.38,9.57Z"/>
        <path class="cls-13" d="M138.91,132.41c-2.55-16.46-.68-32.59,5.61-48.39,4.05-10.17,9.77-19.39,17.17-27.65.03-.04.08-.06.13-.06.1,0,.18.08.18.18.13,4.98.71,10.02,1.73,15.1-1.71.76-3.14,2.13-4.29,4.09-1.6,2.72-2.68,4.76-3.26,6.13-.98,2.32-1.93,5.92-2.86,10.8-1.17,6.18-1.87,13.87-2.09,23.06-.26,10.9,2.63,21.04,5.76,31.33,5.15,16.9,12.54,33.46,22.49,48.17.24.35.42.74.53,1.14.46,1.65,1.48,3.15,3.08,4.48.08.06.11.17.07.26-.06.18-.2.27-.44.28-21.82-16.87-39.52-41.18-43.82-68.91Z"/>
        <path class="cls-15" d="M357.23,307.55s-.04.01-.06.01h.04s.01,0,.02-.01ZM416.35,253.6s-.05.01-.07.03c.03-.02.06-.03.09-.03h-.02Z"/>
        <path class="cls-15" d="M80.56,200.07c.27.43.3.97.06,1.43-2.56,4.85-4.99,10.47-7.31,16.86-5.48,15.1-8.09,30.8-7.87,47.08.08,5.83.34,10.9.79,15.21.53,5.12,1.29,10.14,2.28,15.05,2.16,10.71,4.82,21.02,8.01,30.94,1.84,5.74,4.59,13.71,8.26,23.91.31.86.21,2.06-.04,3.07-1.6,6.45-2.62,11.92-3.06,16.42-1.5,15.41.58,30.15,6.26,44.22,6.06,15.02,16.44,29.11,28.21,41.03,10.55,10.68,21.9,20.76,34.03,30.23.11.09.14.26.05.37-.03.03-.06.06-.09.08-14.1,7.2-29.88,17.39-29.01,35.56.1,2.23.36,5.09.79,8.58.82,6.82,2.24,13.29,5.88,18.42,3.5,4.91,8.63,8.92,13.86,11.83,13.59,7.57,28.12,12.74,43.58,15.51,28.31,5.07,55.92,4.08,85.38-.46,20.04-3.08,39.58-8.39,58.61-15.91,11.15-4.41,21.82-9.79,32.01-16.15,8.05-5.03,15.17-10.6,21.34-16.69,5.56-5.5,9.38-13.17,9.48-20.99.09-7.19-.68-14.16-2.3-20.93-5.23-21.92-35.73-26.95-54.31-27.27-.15,0-.29-.11-.31-.27l-3.37-22.56c-.06-.41.04-.83.27-1.16,2.94-4.32,4.48-6.57,4.58-6.73,10.79-15.76,18.29-33.01,22.5-51.76.05-.24.29-.39.53-.33,3.56.82,7,.98,10.32.6,12.52-1.42,23.2-10.47,30.85-20.48,4.18-5.46,7.32-10.01,9.41-13.62,13.71-23.71,21.64-51.41,21.01-78.92-.11-4.97-.9-9.62-2.37-13.95-1.98-5.86-6.14-8.33-12.47-7.42-1.3.19-3.29.91-5.98,2.18-6.28,2.96-12.46,6.53-18.54,10.72-.08.06-.2.04-.26-.05-.02-.03-.03-.08-.03-.12.26-3.73-.31-8.69-1.03-15.01-3.28-28.2-14.54-52.54-33.78-73.05-.27-.29-.36-.71-.23-1.09,5.19-14.5,10.77-28.93,16.75-43.29.09-.22.29-.39.53-.44,10.71-2.35,18.41-8.42,23.12-18.2,1.96-4.08,2.8-8.6,2.55-13.55-.46-8.83-4.1-16.11-10.93-21.82-16.5-13.81-42.63-7.85-49.39,13.51-2.61,8.25-.93,17.26,3.53,24.87.36.62.4,1.38.1,2.03-5.18,11.13-10.97,21.89-17.37,32.26-.11.18-.34.23-.53.12h0c-7.4-4.99-15.04-9.18-23.31-11.65-5.47-1.63-10.76-2.85-15.88-3.65-.26-.04-.44-.27-.44-.53.42-15.1,5.44-30.29,13.85-42.71.89-1.32,3.02-4.35,6.39-9.08.76-1.07,1.19-2.38,1.29-3.92.19-2.92-2.19-6.05-4.92-6.66-4.34-.97-8.83-1.21-13.49-.72-16.82,1.77-31.55,11.45-42.44,23.89-.07.08-.19.09-.27.01-.04-.03-.06-.07-.07-.12-1.54-11.34-.67-22.41,2.61-33.22,1.86-6.12,4.71-11.8,7.91-17.89,3.05-5.78-.87-11.02-6.98-11.27-3.51-.15-6.76.03-9.74.53-17.53,2.97-32.69,10.54-45.51,22.72-6.73,6.4-12.47,13.47-17.2,21.21-.04.05-.11.07-.15.04-.03-.01-.05-.04-.05-.07-1.25-6.96-1.88-13.84-1.9-20.62-.01-4.49-.09-6.98-.25-7.48-.89-2.9-3.21-4.52-6.96-4.86-1.14-.11-2.45.37-3.93,1.43-14.49,10.35-25.18,24.94-31.84,41.15-9.78,23.8-11.06,48.14-3.83,73.01.07.22-.02.46-.21.58-7.74,5.19-14.87,11.13-21.41,17.81-.18.19-.49.2-.69.01h0c-8.89-8.84-16.87-18-25.66-27.96-.32-.36-.4-.89-.21-1.33,7.05-15.99-2.82-34.45-19.47-38.73-20.36-5.24-40.04,11.69-37.57,32.65,1.89,16.06,15.84,26.82,31.54,27.04.54.01,1.05.29,1.34.75l25.11,39.78ZM270.64,132.94c0,.19-.11.37-.29.42-34.06,10.24-62.22,32.6-80.02,63.25-1.34,2.31-2.5,4.76-3.49,7.35-.05.12-.18.18-.31.14-.02,0-.03-.02-.05-.03l-3.76-2.76c-21.82-16.87-39.52-41.18-43.82-68.91-2.55-16.45-.68-32.58,5.61-48.39,4.05-10.17,9.77-19.39,17.17-27.65.06-.07.18-.08.25-.02.04.03.06.08.06.13.13,4.99.71,10.02,1.73,15.1,1.5,8.05,3.65,15.56,6.44,22.56,1.83,4.6,4.39,9.14,7.67,13.64-.23-1.84-.27-3.28-.12-4.3,1.41-9.56,5.16-18.33,10.07-26.65,10.8-18.28,28.25-33.25,48.91-38.84.12-.03.24.04.27.16.02.05.01.1,0,.14l-3.04,8.2c-3.19,12.62-4.21,25.16-3.07,37.61,1.29,14.12,4.78,26.55,11.97,38.44.05.1.18.13.28.08.05-.03.09-.08.1-.14.29-1.52.68-3.03,1.19-4.5,6.51-18.96,20.85-34.8,39.82-41.91.15-.06.32.01.38.16.03.09.03.19-.02.27-10.53,17.3-15.18,36.11-13.94,56.45ZM162.55,495.61c.52-.2,1.1-.14,1.57.15l7.19,4.53c.16.1.21.32.11.47-.05.08-.12.13-.21.15-6.8,1.74-14.39,5.21-19.75,9.99-2,1.79-3.03,4-3.09,6.65-.08,3.42,2.46,6.18,5.09,8.08,5.15,3.75,11.25,6.72,18.29,8.9,12.37,3.83,24.81,6.11,38.29,6.88,20.84,1.19,41.5-.15,61.97-4.04,25.27-4.8,50.29-12.56,72-26.71,5.05-3.29,10.76-7.57,14.66-12.48,2.13-2.68,3.48-7.18,1.57-10.24-1.75-2.8-4.81-4.32-7.76-5.26-4.69-1.49-9.47-2.27-14.33-2.33-.16,0-.31-.12-.32-.29l-.88-7.71c-.02-.19.12-.37.31-.39h.04c10.13-.04,21.21,1.67,30.2,6.57,4.91,2.68,7.77,6.59,8.57,11.71.93,5.92,1.68,11,1.49,16.71,0,.3-.05.6-.13.89-1.87,6.96-7.63,11.93-13.42,16.3-2.95,2.23-6.36,4.55-10.23,6.97-8.76,5.47-18.26,10.24-28.5,14.31-17.47,6.96-35.41,11.95-53.84,14.97-6.8,1.12-13.15,2.02-19.06,2.71-18.39,2.15-36.84,2.08-55.36-.22-14.38-1.79-28.98-5.46-42.4-11.67-4.53-2.09-8.72-4.83-12.56-8.2-2.53-2.22-4.1-4.83-4.69-7.83-.81-4.06-1.41-8.86-1.81-14.39-.42-5.64,1.83-9.72,6.09-13.2,6.17-5.03,13.12-9.03,20.86-12.01ZM318.79,450.42s.02.03.02.06c.8,5.84,1.79,11.84,2.98,18.02.72,3.7,1.5,7.47,2.36,11.29,1.88,8.35,3.69,16.61,5.43,24.78.16.37.15.6-.04.7-6.07,3.05-12.27,5.78-18.62,8.18-25.55,9.66-52.04,15-79.46,16.04-1.85.07-3.71.12-5.57.13-2.8.02-5.61-.03-8.43-.14-2.83-.11-5.66-.29-8.51-.53-.04,0-.07,0-.11-.03-.01,0-.03,0-.04-.02-.02,0-.04-.02-.06-.04,0,0-.01-.02-.02-.02s-.01-.01-.02-.02c-.03-.02-.04-.05-.06-.08-.02-.04-.03-.08-.04-.13l-2.22-19.59s0-.05,0-.08c0-.02,0-.04.02-.06,0-.02.01-.03.03-.05.02-.01.03-.03.06-.04.02-.01.06-.02.09-.03.02,0,.04,0,.05,0,2.05.22,4.21.3,6.48.22,18.85-.63,37.13-6.89,53.14-16.26,14.86-8.69,28.53-19.01,40.99-30.95,2.64-2.54,5.11-4.97,7.38-7.3.91-.93,1.8-1.84,2.64-2.74.43-.45.85-.89,1.26-1.33.02-.01.03-.02.04-.04.02-.01.05-.01.08-.01,0,0,0,0,.01,0,.03,0,.05.02.08.04.01.01.02.02.03.03ZM95.57,200.74c-2.76-4.15-8.66-13.26-17.7-27.33-7.4-11.53-13.59-20.14-18.58-25.85-.79-.9-1.58-2.28-2.66-2.34-5.78-.3-11.23-1.07-15.23-5.21-2.85-2.95-4.35-6.32-4.49-10.11-.42-11.17,10.5-19.11,21.11-15.43,7.65,2.66,10.63,10.99,8.65,18.47-.5,1.87-1.18,3.65-2.06,5.32-.3.58-.26,1.29.13,1.81,2.86,3.95,6.73,9.08,11.6,15.39,4.89,6.31,9.01,11.23,12.35,14.77,5.9,6.23,12.08,11.94,18.53,17.12.41.32,1,.26,1.33-.14,7.23-8.73,15.47-17.04,24.96-23.38,0,0,.01,0,.02,0,.02-.01.05-.02.08-.03.02,0,.04,0,.07,0,0,0,.01,0,.02,0,.03,0,.06.02.08.05.01.02.03.03.04.05,0,0,0,.01,0,.02,3.54,6.68,7.79,13.31,12.75,19.86,8.05,10.66,18.91,20.41,29.46,28.45,1.84,1.4,5.19,3.54,10.06,6.43,2.68,1.59,4.88,1.64,6.61.16,1.17-1,2.01-2.39,2.53-4.15.15-.53.77-2.13,1.84-4.8,1.23-3.06,2.93-6.3,5.08-9.74,4.06-6.46,8.81-12.54,14.26-18.23,19.6-20.5,43.22-34.19,70.85-41.09,1.17-.29,2.15-.35,2.95-.18,9.17,1.94,19,5.61,26.48,11.62.03.03.06.06.07.09.02.03.03.08.04.11s0,.08-.01.12h0s-.03.07-.06.1h0s0,.01,0,.01c-1.94,2.2-3.79,4.74-5.56,7.61-.49.79-.74,1.75-.74,2.87,0,2.16,1.02,3.5,3.09,4,1.42.34,2.57.32,3.43-.08,3.38-1.56,6.41-3.83,9.08-6.84,8.63-9.72,15.73-20.57,21.32-32.55,1.25-2.68,4.4-9.93,9.47-21.78.43-1,.64-2.1.11-2.98-2.29-3.79-3.65-7.8-4.09-12.03-1.29-12.5,10.89-19.69,21.87-15.53,14,5.3,13.77,24.63-.55,30-2.09.78-4.14,1.31-6.16,1.59-.44.06-.83.32-1.05.7-.91,1.53-1.85,3.38-2.81,5.55-6.03,13.57-12.04,28.33-18.04,44.29-.66,1.75-1.29,3.48-1.91,5.18-.16.45-.32.91-.48,1.36-1.14,3.21-2.21,6.32-3.18,9.34-.14.42-.27.83-.41,1.25-.64,2.01-1.25,3.98-1.81,5.91-.16.55-.32,1.09-.48,1.63-.79,2.74-1.06,5.93-.82,9.57.09,1.37.55,2.03,1.79,2.48,3.41,1.22,5.23-1.44,6.53-4.03,1.73-3.44,3.17-6.9,4.32-10.4.04-.11.15-.17.26-.13.04.01.07.03.1.07l.92,1.11c.64.57,1.1,1.19,1.37,1.87,11.37,14.38,18.77,30.58,22.2,48.6.05.27.1.54.15.82,1.9,10.35,2.69,20.75,2.37,31.2-.04,1.23-.38,2.2-1.01,2.92-4.44,5.07-8.3,10.45-11.57,16.13-3.25,5.65-5.53,11.37-6.86,17.18-.6,2.62-1.28,5.75-.77,7.72.01.05.04.09.08.13.02.02.04.04.06.05.03.02.06.04.1.05,0,0,0,0,0,0,.04,0,.07,0,.11,0h0s.04,0,.06-.01c.03,0,.06-.02.08-.04.03-.02.06-.05.08-.08,3.57-4.82,7.77-10.14,12.6-15.95,7.13-8.58,15.02-16.25,23.64-23.02,7.01-5.51,14.79-10.4,22.66-14.84.02-.01.05-.02.07-.03h.02s.05,0,.08,0c.01,0,.03,0,.04.02.04,0,.07.03.09.06.01.01.03.02.03.04h0s.02.05.03.08c.52,2.4.81,4.69.87,6.88.62,26.77-6.7,53.27-20.71,76.02-4.91,7.97-10.89,15.61-18.77,20.62-6.25,3.97-15.77,6.66-21.21-.27-1.17-1.48-2.11-3.36-2.85-5.64-.96-2.98-1.81-5.48-2.53-7.49-.04-.11-.12-.17-.25-.18-.19-.02-.31.06-.37.24-1.31,3.95-2.37,7.6-2.82,11.33-.37,3.08-.88,6.91-1.51,11.51-.55,4.06-1.77,9.05-3.64,14.99-5.03,15.97-12.85,30.89-23.46,44.76-17.94,23.45-41.31,43.64-67.85,56.88-5.57,2.78-10.74,4.9-15.51,6.35-12.45,3.81-25.82,5.55-38.89,3.56-8.73-1.33-17.56-5.16-25.19-9.66-5.35-3.15-9.63-5.95-12.83-8.39-10.94-8.33-21.26-17.42-30.96-27.26-15.79-16.04-29.53-34.73-32.83-57.4-1.44-9.91-1.95-19.49-.52-29.08.04-.31.46-2.98,1.23-7.99.86-5.58-.38-10.43-2.13-16.12-.69-2.26-2.39-7.69-5.08-16.31-2.67-8.53-5.05-18.94-7.15-31.25-.55-3.25-1.12-8.28-1.71-15.09-1.95-22.7,2.19-45.08,12.62-65.17,1.09-2.11,2.21-4.29,3.33-6.55.34-.68.22-1.46-.37-2.34Z"/>
        <path class="cls-15" d="M242.29,241.31c5.77-7.03,13.18-11.34,22.25-12.92,16.73-2.93,33,1.29,44.11,14.55,2.44,2.9,4.93,7.19,3.99,10.9-.07.29-.35.5-.65.48-.92-.03-1.78-.37-2.59-1-7.91-6.11-16.15-11.17-25.92-13.87-2.59-.72-4.81-1.12-6.68-1.21-11.96-.6-23.36,1.76-34.2,7.1-.61.3-1.29.51-2.04.63-.11.02-.22,0-.32-.02-.37-.12-.57-.51-.45-.87.42-1.32,1.32-2.32,2.5-3.75Z"/>
        <path class="cls-15" d="M89.94,264.47c3.21-10.55,14.19-17.68,24.55-19.1,8.52-1.17,16.72,1.22,23.46,6.28,1.33,1,4.55,3.85,4.09,5.54-.18.64-.88,1.01-1.58.82-6.65-1.79-13.34-2.58-20.07-2.38-9.28.28-17.84,3.19-24.79,9.39-1.53,1.36-3.03,3.58-4.4,4.85-.25.23-.63.22-.87-.01-1.24-1.2-.86-3.83-.38-5.4Z"/>
        <path class="cls-15" d="M235.86,369.97c9.86,8.09,22.17,9.97,34.48,5.79,6.52-2.22,12.27-5.52,17.22-9.92,2.67-2.36,5.68-5.73,9.06-10.1,3.49-4.53,6.63-9.94,9.43-16.22,6.82-15.29,8.72-33.83,3.95-50.15-1.58-5.41-4.08-10.55-7.48-15.42-5.86-8.4-13.92-13.29-24.2-14.68-8.63-1.17-18.07.28-25.84,4.28-5.24,2.7-9.9,6.17-13.99,10.41-15.17,15.72-21.73,38.53-19.81,60.1,1.27,14.11,5.96,26.7,17.17,35.9Z"/>
        <path class="cls-15" d="M100.97,342.9c1.52,4.51,3.58,8.97,6.18,13.37,9.37,15.86,24.66,32.66,45.11,28.2,8.5-1.85,14.7-8.82,17.92-16.85,3.88-9.66,4.56-20.12,3.42-30.59-1.72-15.83-7.44-32.05-16.9-44.71-4.24-5.68-10.11-11.11-16.72-13.85-4.27-1.77-8.25-3.05-13.02-2.79-12.5.67-22.56,6.07-27.5,18.07-2,4.84-3.18,9.4-3.55,13.66-1.02,11.81,1.18,23.94,5.07,35.49Z"/>
        <path class="cls-15" d="M386.17,335.24s0,0,0,.01c-.15.17-.41.18-.58.03-.93-.85-1.48-1.81-1.85-3.1-.74-2.55-1.48-4.57-2.22-6.06-.93-1.86-3.42-4.79-5.78-4.59-1.82.15-4.25,3.88-5.86,6-.5.66-1.11,1.09-1.84,1.27-.2.05-.42.03-.6-.08-1-.58-1.26-1.65-.78-3.21,3.53-11.35,10.22-21.84,17.98-30.71,4.14-4.74,9.28-8.52,15.42-11.33,1.74-.8,3.27-1.47,4.56-2.01.08-.03.18-.02.25.03.13.08.16.26.08.38-1.77,2.67-4.26,5.88-7.48,9.62-4.59,5.35-9.01,10.88-13.25,16.6-.51.69-1.14,1.27-1.74,1.88-.17.17-.34.44-.51.82-.28.26-.48.54-.6.84-.07.17,0,.36.15.46,3.92,2.46,6.33,6.18,7.22,11.17l-.19,6.65c-.34,2.09-1.13,3.86-2.37,5.33Z"/>
        <path class="cls-15" d="M265.29,405.16s.03-.14-.16-.34c-.15-.15-1.85-1.18-3.71-2.28s-1.38-4.01.79-4.4c1.93-.34,4.12-.5,6.52-.27,2.61.25,6.32.57,9.5,3.38,1.79,1.58,3.14,3.74,3.97,6.56.73,2.47.63,5.74-2.59,6.06-.19.02-.39,0-.57-.08-2.06-.84-3.16-2.22-4.87-3.42-.16-.11-.38-.09-.52.06-4.12,4.49-7.39,7.75-9.81,9.79-11.63,9.8-26.96,16.5-42.2,19.6-5.54,1.13-12.37,1.89-17.76,2.28-14.96,1.07-30.2-.68-43.6-7.06-3.42-1.63-15.38-9.67-9.52-14.51,1.56-1.28,3.32-1.37,4.85-.03,4.02,3.54,8.63,6.14,13.83,7.81,7.45,2.38,15.34,3.59,23.66,3.62,12.43.04,25.8-2.18,38.34-6.26,5.09-1.65,9.94-3.73,14.57-6.24,0,0,6.66-3.17,19.21-14.15.01-.01.06-.05.07-.11Z"/>
        <g>
          <ellipse class="cls-12" cx="117.65" cy="314.2" rx="10.28" ry="17.43" transform="translate(-99.39 58.35) rotate(-19.78)"/>
          <ellipse class="cls-12" cx="246.47" cy="302.86" rx="18.97" ry="10.73" transform="translate(-119.96 437.78) rotate(-71.07)"/>
        </g>
        <path class="cls-2" d="M206.38,509.01l2.22,19.59s.02.09.04.13c.02.03.03.06.06.08,0,0,.01.02.02.02s.01.02.02.02c.02.02.04.03.06.04.01.01.03.02.04.02.04.02.08.03.11.03,2.85.24,5.69.42,8.51.53,2.82.11,5.63.16,8.43.14,1.86-.01,3.72-.06,5.57-.13,27.42-1.03,53.9-6.38,79.46-16.04,6.35-2.4,12.55-5.13,18.62-8.18.18-.09.19-.33.04-.7-1.74-8.17-3.54-16.43-5.43-24.78-.86-3.82-1.65-7.59-2.36-11.29-1.19-6.18-2.18-12.18-2.98-18.02,0-.02-.01-.04-.02-.06-.01-.01-.02-.02-.03-.03-.05-.05-.12-.05-.17-.03-.02.01-.03.02-.04.04-.41.44-.83.88-1.26,1.33-.85.9-1.73,1.81-2.64,2.74-2.28,2.32-4.74,4.76-7.38,7.3-12.47,11.94-26.13,22.26-40.99,30.95-16.01,9.37-34.29,15.63-53.14,16.26-2.27.08-4.43,0-6.48-.22-.02,0-.04,0-.05,0-.03,0-.07.01-.09.03-.02,0-.04.03-.06.04-.02.01-.03.03-.03.05-.02.02-.02.04-.02.06,0,.03-.01.05,0,.08Z"/>
        <path class="cls-5" d="M318.68,450.34s.05.02.08.04c.01.01.02.02.03.03-.02-.04-.06-.06-.11-.07Z"/>
        <path class="cls-5" d="M318.67,450.34s0,0,.01,0c0,0,0,0-.01,0Z"/>
        <path class="cls-5" d="M318.59,450.35s.05-.01.08-.01c-.01,0-.02,0-.03,0-.02,0-.04.01-.05.02Z"/>
        <path class="cls-5" d="M206.38,509.01s0-.05,0-.08c0,0,0,.02,0,.03,0,.02,0,.04,0,.05Z"/>
        <path class="cls-16" d="M367.52,478.55c4.91,2.68,7.77,6.59,8.57,11.71.93,5.92,1.68,11,1.49,16.71-.01.3-.05.6-.13.89-1.87,6.96-7.63,11.93-13.42,16.3-2.95,2.23-6.36,4.55-10.23,6.97-8.76,5.47-18.26,10.24-28.5,14.31-17.47,6.96-35.41,11.95-53.84,14.97-6.8,1.12-13.15,2.02-19.06,2.71-18.39,2.16-36.84,2.08-55.36-.22-14.38-1.79-28.98-5.46-42.4-11.67-4.53-2.1-8.71-4.83-12.56-8.2-2.53-2.22-4.1-4.83-4.69-7.83-.81-4.06-1.41-8.86-1.81-14.39-.42-5.64,1.83-9.72,6.09-13.2,6.17-5.03,13.12-9.03,20.86-12.01.52-.2,1.1-.15,1.57.15l7.19,4.53c.07.05.13.12.15.21.05.18-.07.37-.25.42-6.8,1.74-14.39,5.21-19.75,9.99-2,1.79-3.03,4-3.09,6.65-.08,3.42,2.46,6.18,5.09,8.08,5.15,3.75,11.25,6.72,18.29,8.9,12.37,3.83,24.81,6.11,38.29,6.88,20.84,1.19,41.5-.15,61.97-4.04,25.27-4.8,50.29-12.56,72-26.71,5.05-3.29,10.76-7.57,14.66-12.48,2.13-2.68,3.48-7.18,1.57-10.24-1.75-2.8-4.81-4.32-7.76-5.26-4.69-1.49-9.47-2.27-14.33-2.33-.17,0-.31-.12-.32-.29l-.88-7.71s0-.03,0-.04c0-.19.16-.35.35-.35,10.13-.03,21.21,1.67,30.2,6.58Z"/>
      </g>
    </g>
  </g>
</svg>